<mxfile host="Electron" modified="2024-05-31T15:26:25.272Z" agent="Mozilla/5.0 (Windows NT 10.0; Win64; x64) AppleWebKit/537.36 (KHTML, like Gecko) draw.io/24.4.8 Chrome/124.0.6367.207 Electron/30.0.6 Safari/537.36" etag="-BbwnKF2xspWqElkssw2" version="24.4.8" type="device">
  <diagram name="Questions" id="tHCEnAuapFhDYKuq5LXg">
    <mxGraphModel dx="912" dy="556" grid="1" gridSize="10" guides="1" tooltips="1" connect="1" arrows="1" fold="1" page="1" pageScale="1" pageWidth="827" pageHeight="1169" math="1" shadow="0">
      <root>
        <mxCell id="0" />
        <mxCell id="1" parent="0" />
        <mxCell id="ZvY18dn5rHOq4MJxhakR-2" value="Exercises" style="rounded=1;whiteSpace=wrap;html=1;fontSize=40;fillColor=#b0e3e6;strokeColor=#0e8088;strokeWidth=2;fontFamily=Dune Rise;arcSize=13;fontStyle=1" parent="1" vertex="1">
          <mxGeometry x="238" y="30" width="351" height="70" as="geometry" />
        </mxCell>
        <mxCell id="6SqKx-31DNEQ2xtWk_rO-15" value="" style="group;movable=1;resizable=1;rotatable=1;deletable=1;editable=1;locked=0;connectable=1;" parent="1" vertex="1" connectable="0">
          <mxGeometry x="30" y="200" width="768.18" height="260" as="geometry" />
        </mxCell>
        <mxCell id="6SqKx-31DNEQ2xtWk_rO-9" value="" style="group" parent="6SqKx-31DNEQ2xtWk_rO-15" vertex="1" connectable="0">
          <mxGeometry width="200.9086153846154" height="260" as="geometry" />
        </mxCell>
        <mxCell id="6SqKx-31DNEQ2xtWk_rO-6" value="&lt;span style=&quot;font-family: Mina; font-size: 30px; font-weight: 700;&quot;&gt;Given&lt;/span&gt;" style="rounded=0;whiteSpace=wrap;html=1;strokeWidth=2;fillColor=#cce5ff;strokeColor=#36393d;fontSize=30;" parent="6SqKx-31DNEQ2xtWk_rO-9" vertex="1">
          <mxGeometry width="200.9086153846154" height="59.09090909090909" as="geometry" />
        </mxCell>
        <mxCell id="6SqKx-31DNEQ2xtWk_rO-7" value="&lt;span style=&quot;font-family: Mina; font-size: 24px; font-weight: 700;&quot;&gt;Lines of Code (L)&lt;/span&gt;" style="rounded=0;whiteSpace=wrap;html=1;strokeWidth=2;fillColor=#cce5ff;strokeColor=#36393d;fontSize=24;" parent="6SqKx-31DNEQ2xtWk_rO-9" vertex="1">
          <mxGeometry y="59.09090909090909" width="200.9086153846154" height="130" as="geometry" />
        </mxCell>
        <mxCell id="6SqKx-31DNEQ2xtWk_rO-8" value="&lt;span style=&quot;font-family: Mina; font-size: 24px; font-weight: 700;&quot;&gt;The Other Value&lt;/span&gt;" style="rounded=0;whiteSpace=wrap;html=1;strokeWidth=2;fillColor=#cce5ff;strokeColor=#36393d;fontSize=24;" parent="6SqKx-31DNEQ2xtWk_rO-9" vertex="1">
          <mxGeometry y="189.0909090909091" width="200.9086153846154" height="70.9090909090909" as="geometry" />
        </mxCell>
        <mxCell id="6SqKx-31DNEQ2xtWk_rO-10" value="" style="group" parent="6SqKx-31DNEQ2xtWk_rO-15" vertex="1" connectable="0">
          <mxGeometry x="200.9086153846154" width="283.63569230769235" height="260" as="geometry" />
        </mxCell>
        <mxCell id="6SqKx-31DNEQ2xtWk_rO-1" value="&lt;span style=&quot;font-family: Mina; font-size: 30px; font-weight: 700;&quot;&gt;Effort (E)&lt;/span&gt;" style="rounded=0;whiteSpace=wrap;html=1;strokeWidth=2;fillColor=#ffcccc;strokeColor=#36393d;fontSize=30;" parent="6SqKx-31DNEQ2xtWk_rO-10" vertex="1">
          <mxGeometry width="283.63569230769235" height="59.09090909090909" as="geometry" />
        </mxCell>
        <mxCell id="6SqKx-31DNEQ2xtWk_rO-4" value="&lt;span style=&quot;font-family: Mina; font-size: 33px;&quot;&gt;`(frac{E}{1.4})^{frac{1}{0.93}}`&lt;/span&gt;" style="rounded=0;whiteSpace=wrap;html=1;strokeWidth=2;fillColor=#ffcccc;strokeColor=#36393d;fontSize=33;" parent="6SqKx-31DNEQ2xtWk_rO-10" vertex="1">
          <mxGeometry y="59.09090909090909" width="283.63569230769235" height="130" as="geometry" />
        </mxCell>
        <mxCell id="6SqKx-31DNEQ2xtWk_rO-5" value="&lt;span style=&quot;font-family: Mina; font-size: 29px;&quot;&gt;`D=4.6(L)^{0.26}`&lt;/span&gt;" style="rounded=0;whiteSpace=wrap;html=1;strokeWidth=2;fillColor=#ffcccc;strokeColor=#36393d;" parent="6SqKx-31DNEQ2xtWk_rO-10" vertex="1">
          <mxGeometry y="189.0909090909091" width="283.63569230769235" height="70.9090909090909" as="geometry" />
        </mxCell>
        <mxCell id="6SqKx-31DNEQ2xtWk_rO-11" value="" style="group" parent="6SqKx-31DNEQ2xtWk_rO-15" vertex="1" connectable="0">
          <mxGeometry x="484.54430769230765" width="283.63569230769235" height="260" as="geometry" />
        </mxCell>
        <mxCell id="6SqKx-31DNEQ2xtWk_rO-12" value="&lt;span style=&quot;font-family: Mina; font-size: 30px; font-weight: 700;&quot;&gt;Duration (D)&lt;/span&gt;" style="rounded=0;whiteSpace=wrap;html=1;strokeWidth=2;fillColor=#ffff88;strokeColor=#36393d;fontSize=30;" parent="6SqKx-31DNEQ2xtWk_rO-11" vertex="1">
          <mxGeometry width="283.63569230769235" height="59.09090909090909" as="geometry" />
        </mxCell>
        <mxCell id="6SqKx-31DNEQ2xtWk_rO-13" value="&lt;span style=&quot;font-family: Mina; font-size: 33px;&quot;&gt;`(frac{D}{4.6})^{frac{1}{0.26}}`&lt;/span&gt;" style="rounded=0;whiteSpace=wrap;html=1;strokeWidth=2;fillColor=#ffff88;strokeColor=#36393d;fontSize=33;" parent="6SqKx-31DNEQ2xtWk_rO-11" vertex="1">
          <mxGeometry y="59.09090909090909" width="283.63569230769235" height="130" as="geometry" />
        </mxCell>
        <mxCell id="6SqKx-31DNEQ2xtWk_rO-14" value="&lt;span style=&quot;font-family: Mina; font-size: 29px;&quot;&gt;`E=1.4(L)^{0.93}`&lt;/span&gt;" style="rounded=0;whiteSpace=wrap;html=1;strokeWidth=2;fillColor=#ffff88;strokeColor=#36393d;" parent="6SqKx-31DNEQ2xtWk_rO-11" vertex="1">
          <mxGeometry y="189.0909090909091" width="283.63569230769235" height="70.9090909090909" as="geometry" />
        </mxCell>
        <mxCell id="6SqKx-31DNEQ2xtWk_rO-17" value="" style="group" parent="1" vertex="1" connectable="0">
          <mxGeometry x="29" y="560" width="768.18" height="260" as="geometry" />
        </mxCell>
        <mxCell id="6SqKx-31DNEQ2xtWk_rO-18" value="" style="group" parent="6SqKx-31DNEQ2xtWk_rO-17" vertex="1" connectable="0">
          <mxGeometry width="200.90861538461536" height="260" as="geometry" />
        </mxCell>
        <mxCell id="6SqKx-31DNEQ2xtWk_rO-19" value="&lt;span style=&quot;font-family: Mina; font-size: 30px; font-weight: 700;&quot;&gt;Given&lt;/span&gt;" style="rounded=0;whiteSpace=wrap;html=1;strokeWidth=2;fillColor=#cce5ff;strokeColor=#36393d;fontSize=30;" parent="6SqKx-31DNEQ2xtWk_rO-18" vertex="1">
          <mxGeometry width="200.90861538461536" height="59.09090909090909" as="geometry" />
        </mxCell>
        <mxCell id="6SqKx-31DNEQ2xtWk_rO-20" value="&lt;span style=&quot;font-family: Mina; font-size: 24px; font-weight: 700;&quot;&gt;Lines of Code (L)&lt;/span&gt;" style="rounded=0;whiteSpace=wrap;html=1;strokeWidth=2;fillColor=#cce5ff;strokeColor=#36393d;fontSize=24;" parent="6SqKx-31DNEQ2xtWk_rO-18" vertex="1">
          <mxGeometry y="59.09090909090909" width="200.90861538461536" height="130" as="geometry" />
        </mxCell>
        <mxCell id="6SqKx-31DNEQ2xtWk_rO-21" value="&lt;span style=&quot;font-family: Mina; font-size: 24px; font-weight: 700;&quot;&gt;The Other Value&lt;/span&gt;" style="rounded=0;whiteSpace=wrap;html=1;strokeWidth=2;fillColor=#cce5ff;strokeColor=#36393d;fontSize=24;" parent="6SqKx-31DNEQ2xtWk_rO-18" vertex="1">
          <mxGeometry y="189.0909090909091" width="200.90861538461536" height="70.9090909090909" as="geometry" />
        </mxCell>
        <mxCell id="6SqKx-31DNEQ2xtWk_rO-22" value="" style="group" parent="6SqKx-31DNEQ2xtWk_rO-17" vertex="1" connectable="0">
          <mxGeometry x="200.90861538461536" width="283.6356923076923" height="260" as="geometry" />
        </mxCell>
        <mxCell id="6SqKx-31DNEQ2xtWk_rO-23" value="&lt;span style=&quot;font-family: Mina; font-size: 30px; font-weight: 700;&quot;&gt;Effort (E)&lt;/span&gt;" style="rounded=0;whiteSpace=wrap;html=1;strokeWidth=2;fillColor=#ffcccc;strokeColor=#36393d;fontSize=30;" parent="6SqKx-31DNEQ2xtWk_rO-22" vertex="1">
          <mxGeometry width="283.6356923076923" height="59.09090909090909" as="geometry" />
        </mxCell>
        <mxCell id="6SqKx-31DNEQ2xtWk_rO-24" value="&lt;span style=&quot;font-family: Mina; font-size: 33px;&quot;&gt;`(frac{E}{5.2})^{frac{1}{0.91}}`&lt;/span&gt;" style="rounded=0;whiteSpace=wrap;html=1;strokeWidth=2;fillColor=#ffcccc;strokeColor=#36393d;fontSize=33;" parent="6SqKx-31DNEQ2xtWk_rO-22" vertex="1">
          <mxGeometry y="59.09090909090909" width="283.6356923076923" height="130" as="geometry" />
        </mxCell>
        <mxCell id="6SqKx-31DNEQ2xtWk_rO-25" value="&lt;span style=&quot;font-family: Mina; font-size: 29px;&quot;&gt;`D=4.1(L)^{0.36}`&lt;/span&gt;" style="rounded=0;whiteSpace=wrap;html=1;strokeWidth=2;fillColor=#ffcccc;strokeColor=#36393d;" parent="6SqKx-31DNEQ2xtWk_rO-22" vertex="1">
          <mxGeometry y="189.0909090909091" width="283.6356923076923" height="70.9090909090909" as="geometry" />
        </mxCell>
        <mxCell id="6SqKx-31DNEQ2xtWk_rO-26" value="" style="group" parent="6SqKx-31DNEQ2xtWk_rO-17" vertex="1" connectable="0">
          <mxGeometry x="484.54430769230765" width="283.6356923076923" height="260" as="geometry" />
        </mxCell>
        <mxCell id="6SqKx-31DNEQ2xtWk_rO-27" value="&lt;span style=&quot;font-family: Mina; font-size: 30px; font-weight: 700;&quot;&gt;Duration (D)&lt;/span&gt;" style="rounded=0;whiteSpace=wrap;html=1;strokeWidth=2;fillColor=#ffff88;strokeColor=#36393d;fontSize=30;" parent="6SqKx-31DNEQ2xtWk_rO-26" vertex="1">
          <mxGeometry width="283.6356923076923" height="59.09090909090909" as="geometry" />
        </mxCell>
        <mxCell id="6SqKx-31DNEQ2xtWk_rO-28" value="&lt;span style=&quot;font-family: Mina; font-size: 33px;&quot;&gt;`(frac{D}{4.1})^{frac{1}{0.36}}`&lt;/span&gt;" style="rounded=0;whiteSpace=wrap;html=1;strokeWidth=2;fillColor=#ffff88;strokeColor=#36393d;fontSize=33;" parent="6SqKx-31DNEQ2xtWk_rO-26" vertex="1">
          <mxGeometry y="59.09090909090909" width="283.6356923076923" height="130" as="geometry" />
        </mxCell>
        <mxCell id="6SqKx-31DNEQ2xtWk_rO-29" value="&lt;span style=&quot;font-family: Mina; font-size: 29px;&quot;&gt;`E=5.2(L)^{0.91}`&lt;/span&gt;" style="rounded=0;whiteSpace=wrap;html=1;strokeWidth=2;fillColor=#ffff88;strokeColor=#36393d;" parent="6SqKx-31DNEQ2xtWk_rO-26" vertex="1">
          <mxGeometry y="189.0909090909091" width="283.6356923076923" height="70.9090909090909" as="geometry" />
        </mxCell>
        <mxCell id="6SqKx-31DNEQ2xtWk_rO-37" value="" style="group" parent="1" vertex="1" connectable="0">
          <mxGeometry x="50" y="140" width="160" height="40" as="geometry" />
        </mxCell>
        <mxCell id="6SqKx-31DNEQ2xtWk_rO-35" value="SEL Model" style="rounded=1;whiteSpace=wrap;html=1;fontSize=22;fillColor=#cdeb8b;strokeColor=#36393d;strokeWidth=2;fontFamily=Mina;arcSize=0;hachureGap=4;align=right;spacingRight=7;fontStyle=1" parent="6SqKx-31DNEQ2xtWk_rO-37" vertex="1">
          <mxGeometry x="22.86" width="137.14" height="40" as="geometry" />
        </mxCell>
        <mxCell id="6SqKx-31DNEQ2xtWk_rO-36" value="1" style="ellipse;whiteSpace=wrap;html=1;aspect=fixed;strokeWidth=2;fillColor=#008a00;strokeColor=#005700;fontFamily=Mina;fontStyle=1;fontSize=22;spacingTop=3;fontColor=#ffffff;" parent="6SqKx-31DNEQ2xtWk_rO-37" vertex="1">
          <mxGeometry width="40" height="40" as="geometry" />
        </mxCell>
        <mxCell id="6SqKx-31DNEQ2xtWk_rO-38" value="" style="group" parent="1" vertex="1" connectable="0">
          <mxGeometry x="50" y="490" width="262" height="40" as="geometry" />
        </mxCell>
        <mxCell id="6SqKx-31DNEQ2xtWk_rO-39" value="Walston-Felix Model" style="rounded=1;whiteSpace=wrap;html=1;fontSize=22;fillColor=#cdeb8b;strokeColor=#36393d;strokeWidth=2;fontFamily=Mina;arcSize=0;hachureGap=4;align=right;spacingRight=7;fontStyle=1" parent="6SqKx-31DNEQ2xtWk_rO-38" vertex="1">
          <mxGeometry x="22.86" width="239.14" height="40" as="geometry" />
        </mxCell>
        <mxCell id="6SqKx-31DNEQ2xtWk_rO-40" value="2" style="ellipse;whiteSpace=wrap;html=1;aspect=fixed;strokeWidth=2;fillColor=#008a00;strokeColor=#005700;fontFamily=Mina;fontStyle=1;fontSize=22;spacingTop=3;fontColor=#ffffff;" parent="6SqKx-31DNEQ2xtWk_rO-38" vertex="1">
          <mxGeometry width="40" height="40" as="geometry" />
        </mxCell>
        <mxCell id="6SqKx-31DNEQ2xtWk_rO-42" value="Examples" style="rounded=1;whiteSpace=wrap;html=1;fontSize=24;fillColor=#cdeb8b;strokeColor=#36393d;strokeWidth=2;fontFamily=Mina;arcSize=50;fontStyle=1" parent="1" vertex="1">
          <mxGeometry x="337" y="840" width="153" height="40" as="geometry" />
        </mxCell>
        <mxCell id="6SqKx-31DNEQ2xtWk_rO-77" value="" style="group;fontSize=18;" parent="1" vertex="1" connectable="0">
          <mxGeometry x="130" y="1190" width="567.33" height="230" as="geometry" />
        </mxCell>
        <mxCell id="6SqKx-31DNEQ2xtWk_rO-58" value="" style="group;fontSize=18;" parent="6SqKx-31DNEQ2xtWk_rO-77" vertex="1" connectable="0">
          <mxGeometry width="130.33256756756757" height="230" as="geometry" />
        </mxCell>
        <mxCell id="6SqKx-31DNEQ2xtWk_rO-55" value="&lt;span style=&quot;font-family: Mina; font-size: 18px; font-weight: 700;&quot;&gt;Model&lt;/span&gt;" style="rounded=0;whiteSpace=wrap;html=1;strokeWidth=2;fillColor=#cce5ff;strokeColor=#36393d;fontSize=18;" parent="6SqKx-31DNEQ2xtWk_rO-58" vertex="1">
          <mxGeometry width="130.33256756756757" height="38.333333333333336" as="geometry" />
        </mxCell>
        <mxCell id="6SqKx-31DNEQ2xtWk_rO-52" value="&lt;span style=&quot;font-family: Mina; font-size: 18px; font-weight: 700;&quot;&gt;Given&lt;/span&gt;" style="rounded=0;whiteSpace=wrap;html=1;strokeWidth=2;fillColor=#cce5ff;strokeColor=#36393d;fontSize=18;" parent="6SqKx-31DNEQ2xtWk_rO-58" vertex="1">
          <mxGeometry y="38.333333333333336" width="130.33256756756757" height="38.333333333333336" as="geometry" />
        </mxCell>
        <mxCell id="6SqKx-31DNEQ2xtWk_rO-53" value="&lt;span style=&quot;font-family: Mina; font-size: 17px; font-weight: 700;&quot;&gt;Lines of Code (L)&lt;/span&gt;" style="rounded=0;whiteSpace=wrap;html=1;strokeWidth=2;fillColor=#cce5ff;strokeColor=#36393d;fontSize=17;" parent="6SqKx-31DNEQ2xtWk_rO-58" vertex="1">
          <mxGeometry y="76.66666666666667" width="130.33256756756757" height="84.33333333333333" as="geometry" />
        </mxCell>
        <mxCell id="6SqKx-31DNEQ2xtWk_rO-54" value="&lt;span style=&quot;font-family: Mina; font-size: 16px; font-weight: 700;&quot;&gt;The Other Value&lt;/span&gt;&lt;div style=&quot;font-size: 16px;&quot;&gt;&lt;span style=&quot;font-family: Mina; font-size: 16px; font-weight: 700;&quot;&gt;Duration (D)&lt;/span&gt;&lt;/div&gt;" style="rounded=0;whiteSpace=wrap;html=1;strokeWidth=2;fillColor=#cce5ff;strokeColor=#36393d;fontSize=16;" parent="6SqKx-31DNEQ2xtWk_rO-58" vertex="1">
          <mxGeometry y="161.00000000000003" width="130.33256756756757" height="68.99999999999999" as="geometry" />
        </mxCell>
        <mxCell id="6SqKx-31DNEQ2xtWk_rO-59" value="" style="group;fontSize=18;" parent="6SqKx-31DNEQ2xtWk_rO-77" vertex="1" connectable="0">
          <mxGeometry x="130.33256756756757" width="222.3320270270271" height="230" as="geometry" />
        </mxCell>
        <mxCell id="6SqKx-31DNEQ2xtWk_rO-56" value="&lt;span style=&quot;font-family: Mina; font-size: 18px; font-weight: 700;&quot;&gt;SEL Model&lt;/span&gt;" style="rounded=0;whiteSpace=wrap;html=1;strokeWidth=2;fillColor=#cdeb8b;strokeColor=#36393d;fontSize=18;" parent="6SqKx-31DNEQ2xtWk_rO-59" vertex="1">
          <mxGeometry width="222.3320270270271" height="38.333333333333336" as="geometry" />
        </mxCell>
        <mxCell id="6SqKx-31DNEQ2xtWk_rO-44" value="&lt;span style=&quot;font-family: Mina; font-size: 18px; font-weight: 700;&quot;&gt;Effort (E)&lt;/span&gt;" style="rounded=0;whiteSpace=wrap;html=1;strokeWidth=2;fillColor=#ffcccc;strokeColor=#36393d;fontSize=18;" parent="6SqKx-31DNEQ2xtWk_rO-59" vertex="1">
          <mxGeometry y="38.333333333333336" width="222.3320270270271" height="38.333333333333336" as="geometry" />
        </mxCell>
        <mxCell id="6SqKx-31DNEQ2xtWk_rO-45" value="&lt;span style=&quot;font-family: Mina; font-size: 20px;&quot;&gt;`(frac{50}{1.4})^{frac{1}{0.93}}~~46.7`&lt;/span&gt;" style="rounded=0;whiteSpace=wrap;html=1;strokeWidth=2;fillColor=#ffcccc;strokeColor=#36393d;fontSize=20;" parent="6SqKx-31DNEQ2xtWk_rO-59" vertex="1">
          <mxGeometry y="76.66666666666667" width="222.3320270270271" height="84.33333333333333" as="geometry" />
        </mxCell>
        <mxCell id="6SqKx-31DNEQ2xtWk_rO-46" value="&lt;span style=&quot;font-family: Mina; font-size: 20px;&quot;&gt;`D=4.6(46.7)^{0.26}`&lt;/span&gt;&lt;div style=&quot;text-align: left; font-size: 20px;&quot;&gt;&lt;span style=&quot;font-family: Mina; background-color: initial; font-size: 20px;&quot;&gt;&amp;nbsp; &amp;nbsp; `~~12.5`&lt;/span&gt;&lt;/div&gt;" style="rounded=0;whiteSpace=wrap;html=1;strokeWidth=2;fillColor=#ffcccc;strokeColor=#36393d;align=center;spacing=10;fontSize=20;" parent="6SqKx-31DNEQ2xtWk_rO-59" vertex="1">
          <mxGeometry y="161.00000000000003" width="222.3320270270271" height="68.99999999999999" as="geometry" />
        </mxCell>
        <mxCell id="6SqKx-31DNEQ2xtWk_rO-60" value="" style="group;fontSize=18;" parent="6SqKx-31DNEQ2xtWk_rO-77" vertex="1" connectable="0">
          <mxGeometry x="352.6645945945947" width="214.66540540540544" height="230" as="geometry" />
        </mxCell>
        <mxCell id="6SqKx-31DNEQ2xtWk_rO-57" value="&lt;span style=&quot;font-family: Mina; font-size: 18px; font-weight: 700; text-align: right;&quot;&gt;Walston-Felix Model&lt;/span&gt;" style="rounded=0;whiteSpace=wrap;html=1;strokeWidth=2;fillColor=#cdeb8b;strokeColor=#36393d;fontSize=18;" parent="6SqKx-31DNEQ2xtWk_rO-60" vertex="1">
          <mxGeometry width="214.66540540540544" height="38.333333333333336" as="geometry" />
        </mxCell>
        <mxCell id="6SqKx-31DNEQ2xtWk_rO-48" value="&lt;span style=&quot;font-family: Mina; font-size: 18px; font-weight: 700;&quot;&gt;Effort (E)&lt;/span&gt;" style="rounded=0;whiteSpace=wrap;html=1;strokeWidth=2;fillColor=#ffcccc;strokeColor=#36393d;fontSize=18;" parent="6SqKx-31DNEQ2xtWk_rO-60" vertex="1">
          <mxGeometry y="38.333333333333336" width="214.66540540540544" height="38.333333333333336" as="geometry" />
        </mxCell>
        <mxCell id="6SqKx-31DNEQ2xtWk_rO-49" value="&lt;span style=&quot;font-family: Mina; font-size: 20px;&quot;&gt;`(frac{50}{5.2})^{frac{1}{0.91}}~~12`&lt;/span&gt;" style="rounded=0;whiteSpace=wrap;html=1;strokeWidth=2;fillColor=#ffcccc;strokeColor=#36393d;fontSize=20;" parent="6SqKx-31DNEQ2xtWk_rO-60" vertex="1">
          <mxGeometry y="76.66666666666667" width="214.66540540540544" height="84.33333333333333" as="geometry" />
        </mxCell>
        <mxCell id="6SqKx-31DNEQ2xtWk_rO-50" value="&lt;span style=&quot;font-size: 20px; font-family: Mina;&quot;&gt;`D=4.1(12)^{0.36}`&lt;/span&gt;&lt;div style=&quot;font-size: 20px; text-align: left;&quot;&gt;&lt;span style=&quot;font-family: Mina; background-color: initial; font-size: 20px;&quot;&gt;&amp;nbsp; &amp;nbsp; `~~10`&lt;/span&gt;&lt;/div&gt;" style="rounded=0;whiteSpace=wrap;html=1;strokeWidth=2;fillColor=#ffcccc;strokeColor=#36393d;fontSize=20;" parent="6SqKx-31DNEQ2xtWk_rO-60" vertex="1">
          <mxGeometry y="161.00000000000003" width="214.66540540540544" height="68.99999999999999" as="geometry" />
        </mxCell>
        <mxCell id="6SqKx-31DNEQ2xtWk_rO-80" value="" style="group;whiteSpace=wrap;" parent="1" vertex="1" connectable="0">
          <mxGeometry x="93" y="1590" width="641.7" height="230" as="geometry" />
        </mxCell>
        <mxCell id="6SqKx-31DNEQ2xtWk_rO-62" value="" style="group;strokeWidth=2;fontSize=16;" parent="6SqKx-31DNEQ2xtWk_rO-80" vertex="1" connectable="0">
          <mxGeometry width="130.33333333333331" height="230" as="geometry" />
        </mxCell>
        <mxCell id="6SqKx-31DNEQ2xtWk_rO-63" value="&lt;span style=&quot;font-family: Mina; font-size: 16px; font-weight: 700;&quot;&gt;Model&lt;/span&gt;" style="rounded=0;whiteSpace=wrap;html=1;strokeWidth=2;fillColor=#cce5ff;strokeColor=#36393d;fontSize=16;" parent="6SqKx-31DNEQ2xtWk_rO-62" vertex="1">
          <mxGeometry width="130.33333333333331" height="38.333333333333336" as="geometry" />
        </mxCell>
        <mxCell id="6SqKx-31DNEQ2xtWk_rO-64" value="&lt;span style=&quot;font-family: Mina; font-size: 16px; font-weight: 700;&quot;&gt;Given&lt;/span&gt;" style="rounded=0;whiteSpace=wrap;html=1;strokeWidth=2;fillColor=#cce5ff;strokeColor=#36393d;fontSize=16;" parent="6SqKx-31DNEQ2xtWk_rO-62" vertex="1">
          <mxGeometry y="38.333333333333336" width="130.33333333333331" height="38.333333333333336" as="geometry" />
        </mxCell>
        <mxCell id="6SqKx-31DNEQ2xtWk_rO-65" value="&lt;span style=&quot;font-family: Mina; font-size: 16px; font-weight: 700;&quot;&gt;Lines of Code&lt;/span&gt;&lt;div&gt;&lt;span style=&quot;font-family: Mina; font-weight: 700; background-color: initial;&quot;&gt;(L)&lt;/span&gt;&lt;/div&gt;" style="rounded=0;whiteSpace=wrap;html=1;strokeWidth=2;fillColor=#cce5ff;strokeColor=#36393d;fontSize=16;" parent="6SqKx-31DNEQ2xtWk_rO-62" vertex="1">
          <mxGeometry y="76.66666666666667" width="130.33333333333331" height="84.33333333333334" as="geometry" />
        </mxCell>
        <mxCell id="6SqKx-31DNEQ2xtWk_rO-66" value="&lt;span style=&quot;font-family: Mina; font-size: 16px; font-weight: 700;&quot;&gt;The Other Value&lt;/span&gt;&lt;div style=&quot;font-size: 16px;&quot;&gt;&lt;span style=&quot;font-family: Mina; font-size: 16px; font-weight: 700;&quot;&gt;Effort (E)&lt;/span&gt;&lt;/div&gt;" style="rounded=0;whiteSpace=wrap;html=1;strokeWidth=2;fillColor=#cce5ff;strokeColor=#36393d;fontSize=16;" parent="6SqKx-31DNEQ2xtWk_rO-62" vertex="1">
          <mxGeometry y="161" width="130.33333333333331" height="69" as="geometry" />
        </mxCell>
        <mxCell id="6SqKx-31DNEQ2xtWk_rO-67" value="" style="group;strokeWidth=2;" parent="6SqKx-31DNEQ2xtWk_rO-80" vertex="1" connectable="0">
          <mxGeometry x="130.33333333333331" width="253.00000000000003" height="230" as="geometry" />
        </mxCell>
        <mxCell id="6SqKx-31DNEQ2xtWk_rO-68" value="&lt;span style=&quot;font-family: Mina; font-size: 20px; font-weight: 700;&quot;&gt;SEL Model&lt;/span&gt;" style="rounded=0;whiteSpace=wrap;html=1;strokeWidth=2;fillColor=#cdeb8b;strokeColor=#36393d;" parent="6SqKx-31DNEQ2xtWk_rO-67" vertex="1">
          <mxGeometry width="253.00000000000003" height="38.333333333333336" as="geometry" />
        </mxCell>
        <mxCell id="6SqKx-31DNEQ2xtWk_rO-69" value="&lt;span style=&quot;font-family: Mina; font-size: 20px; font-weight: 700;&quot;&gt;Duration (D)&lt;/span&gt;" style="rounded=0;whiteSpace=wrap;html=1;strokeWidth=2;fillColor=#ffff88;strokeColor=#36393d;fontSize=20;" parent="6SqKx-31DNEQ2xtWk_rO-67" vertex="1">
          <mxGeometry y="38.333333333333336" width="253.00000000000003" height="38.333333333333336" as="geometry" />
        </mxCell>
        <mxCell id="6SqKx-31DNEQ2xtWk_rO-70" value="&lt;span style=&quot;font-family: Mina; font-size: 20px;&quot;&gt;`(frac{50}{4.6})^{frac{1}{0.26}}~~9670.11`&lt;/span&gt;" style="rounded=0;whiteSpace=wrap;html=1;strokeWidth=2;fillColor=#ffff88;strokeColor=#36393d;fontSize=20;" parent="6SqKx-31DNEQ2xtWk_rO-67" vertex="1">
          <mxGeometry y="76.66666666666667" width="253.00000000000003" height="84.33333333333334" as="geometry" />
        </mxCell>
        <mxCell id="6SqKx-31DNEQ2xtWk_rO-71" value="&lt;span style=&quot;font-family: Mina; font-size: 20px;&quot;&gt;`E=1.4(9670.11)^{0.93}`&lt;/span&gt;&lt;div style=&quot;text-align: left; font-size: 20px;&quot;&gt;&lt;span style=&quot;font-family: Mina; background-color: initial; font-size: 20px;&quot;&gt;&amp;nbsp; &amp;nbsp; `~~7121.6`&lt;/span&gt;&lt;/div&gt;" style="rounded=0;whiteSpace=wrap;html=1;strokeWidth=2;fillColor=#ffff88;strokeColor=#36393d;align=center;spacing=10;fontSize=20;" parent="6SqKx-31DNEQ2xtWk_rO-67" vertex="1">
          <mxGeometry y="161" width="253.00000000000003" height="69" as="geometry" />
        </mxCell>
        <mxCell id="6SqKx-31DNEQ2xtWk_rO-72" value="" style="group;strokeWidth=2;" parent="6SqKx-31DNEQ2xtWk_rO-80" vertex="1" connectable="0">
          <mxGeometry x="383.33333333333337" width="258.3666666666667" height="230" as="geometry" />
        </mxCell>
        <mxCell id="6SqKx-31DNEQ2xtWk_rO-73" value="&lt;span style=&quot;font-family: Mina; font-size: 22px; font-weight: 700; text-align: right;&quot;&gt;Walston-Felix Model&lt;/span&gt;" style="rounded=0;whiteSpace=wrap;html=1;strokeWidth=2;fillColor=#cdeb8b;strokeColor=#36393d;" parent="6SqKx-31DNEQ2xtWk_rO-72" vertex="1">
          <mxGeometry width="258.3666666666667" height="38.333333333333336" as="geometry" />
        </mxCell>
        <mxCell id="6SqKx-31DNEQ2xtWk_rO-74" value="&lt;span style=&quot;font-family: Mina; font-size: 20px; font-weight: 700;&quot;&gt;Duration (D)&lt;/span&gt;" style="rounded=0;whiteSpace=wrap;html=1;strokeWidth=2;fillColor=#ffff88;strokeColor=#36393d;fontSize=20;" parent="6SqKx-31DNEQ2xtWk_rO-72" vertex="1">
          <mxGeometry y="38.333333333333336" width="258.3666666666667" height="38.333333333333336" as="geometry" />
        </mxCell>
        <mxCell id="6SqKx-31DNEQ2xtWk_rO-75" value="&lt;span style=&quot;font-family: Mina; font-size: 20px;&quot;&gt;`(frac{50}{4.1})^{frac{1}{0.36}}~~1040.36`&lt;/span&gt;" style="rounded=0;whiteSpace=wrap;html=1;strokeWidth=2;fillColor=#ffff88;strokeColor=#36393d;fontSize=20;" parent="6SqKx-31DNEQ2xtWk_rO-72" vertex="1">
          <mxGeometry y="76.66666666666667" width="258.3666666666667" height="84.33333333333334" as="geometry" />
        </mxCell>
        <mxCell id="6SqKx-31DNEQ2xtWk_rO-76" value="&lt;span style=&quot;font-size: 20px; font-family: Mina;&quot;&gt;`E=5.2(1040.36)^{0.91}`&lt;/span&gt;&lt;div style=&quot;font-size: 20px; text-align: left;&quot;&gt;&lt;span style=&quot;font-family: Mina; background-color: initial; font-size: 20px;&quot;&gt;&amp;nbsp; &amp;nbsp; `~~2894.95`&lt;/span&gt;&lt;/div&gt;" style="rounded=0;whiteSpace=wrap;html=1;strokeWidth=2;fillColor=#ffff88;strokeColor=#36393d;fontSize=20;" parent="6SqKx-31DNEQ2xtWk_rO-72" vertex="1">
          <mxGeometry y="161" width="258.3666666666667" height="69" as="geometry" />
        </mxCell>
        <mxCell id="6SqKx-31DNEQ2xtWk_rO-82" value="" style="group;fontSize=18;" parent="1" vertex="1" connectable="0">
          <mxGeometry x="151.5" y="2050" width="567.33" height="230" as="geometry" />
        </mxCell>
        <mxCell id="6SqKx-31DNEQ2xtWk_rO-83" value="" style="group;fontSize=18;" parent="6SqKx-31DNEQ2xtWk_rO-82" vertex="1" connectable="0">
          <mxGeometry width="130.33256756756757" height="230" as="geometry" />
        </mxCell>
        <mxCell id="6SqKx-31DNEQ2xtWk_rO-84" value="&lt;span style=&quot;font-family: Mina; font-size: 18px; font-weight: 700;&quot;&gt;Model&lt;/span&gt;" style="rounded=0;whiteSpace=wrap;html=1;strokeWidth=2;fillColor=#cce5ff;strokeColor=#36393d;fontSize=18;" parent="6SqKx-31DNEQ2xtWk_rO-83" vertex="1">
          <mxGeometry width="130.33256756756757" height="38.333333333333336" as="geometry" />
        </mxCell>
        <mxCell id="6SqKx-31DNEQ2xtWk_rO-85" value="&lt;span style=&quot;font-family: Mina; font-size: 18px; font-weight: 700;&quot;&gt;Given&lt;/span&gt;" style="rounded=0;whiteSpace=wrap;html=1;strokeWidth=2;fillColor=#cce5ff;strokeColor=#36393d;fontSize=18;" parent="6SqKx-31DNEQ2xtWk_rO-83" vertex="1">
          <mxGeometry y="38.333333333333336" width="130.33256756756757" height="38.333333333333336" as="geometry" />
        </mxCell>
        <mxCell id="6SqKx-31DNEQ2xtWk_rO-86" value="&lt;span style=&quot;font-family: Mina; font-size: 17px; font-weight: 700;&quot;&gt;Lines of Code (L)&lt;/span&gt;" style="rounded=0;whiteSpace=wrap;html=1;strokeWidth=2;fillColor=#cce5ff;strokeColor=#36393d;fontSize=17;" parent="6SqKx-31DNEQ2xtWk_rO-83" vertex="1">
          <mxGeometry y="76.66666666666667" width="130.33256756756757" height="84.33333333333333" as="geometry" />
        </mxCell>
        <mxCell id="6SqKx-31DNEQ2xtWk_rO-87" value="&lt;span style=&quot;font-family: Mina; font-size: 16px; font-weight: 700;&quot;&gt;The Other Value&lt;/span&gt;&lt;div style=&quot;font-size: 16px;&quot;&gt;&lt;span style=&quot;font-family: Mina; font-size: 16px; font-weight: 700;&quot;&gt;Duration (D)&lt;/span&gt;&lt;/div&gt;" style="rounded=0;whiteSpace=wrap;html=1;strokeWidth=2;fillColor=#cce5ff;strokeColor=#36393d;fontSize=16;" parent="6SqKx-31DNEQ2xtWk_rO-83" vertex="1">
          <mxGeometry y="161.00000000000003" width="130.33256756756757" height="68.99999999999999" as="geometry" />
        </mxCell>
        <mxCell id="6SqKx-31DNEQ2xtWk_rO-88" value="" style="group;fontSize=18;" parent="6SqKx-31DNEQ2xtWk_rO-82" vertex="1" connectable="0">
          <mxGeometry x="130.33256756756757" width="222.3320270270271" height="230" as="geometry" />
        </mxCell>
        <mxCell id="6SqKx-31DNEQ2xtWk_rO-89" value="&lt;span style=&quot;font-family: Mina; font-size: 18px; font-weight: 700;&quot;&gt;SEL Model&lt;/span&gt;" style="rounded=0;whiteSpace=wrap;html=1;strokeWidth=2;fillColor=#cdeb8b;strokeColor=#36393d;fontSize=18;" parent="6SqKx-31DNEQ2xtWk_rO-88" vertex="1">
          <mxGeometry width="222.3320270270271" height="38.333333333333336" as="geometry" />
        </mxCell>
        <mxCell id="6SqKx-31DNEQ2xtWk_rO-90" value="&lt;span style=&quot;font-family: Mina; font-size: 18px; font-weight: 700;&quot;&gt;Effort (E)&lt;/span&gt;" style="rounded=0;whiteSpace=wrap;html=1;strokeWidth=2;fillColor=#ffcccc;strokeColor=#36393d;fontSize=18;" parent="6SqKx-31DNEQ2xtWk_rO-88" vertex="1">
          <mxGeometry y="38.333333333333336" width="222.3320270270271" height="38.333333333333336" as="geometry" />
        </mxCell>
        <mxCell id="6SqKx-31DNEQ2xtWk_rO-91" value="&lt;span style=&quot;font-family: Mina; font-size: 20px;&quot;&gt;`(frac{100}{1.4})^{frac{1}{0.93}}~~98.5`&lt;/span&gt;" style="rounded=0;whiteSpace=wrap;html=1;strokeWidth=2;fillColor=#ffcccc;strokeColor=#36393d;fontSize=20;" parent="6SqKx-31DNEQ2xtWk_rO-88" vertex="1">
          <mxGeometry y="76.66666666666667" width="222.3320270270271" height="84.33333333333333" as="geometry" />
        </mxCell>
        <mxCell id="6SqKx-31DNEQ2xtWk_rO-92" value="&lt;span style=&quot;font-family: Mina; font-size: 20px;&quot;&gt;`D=4.6(98.5)^{0.26}`&lt;/span&gt;&lt;div style=&quot;text-align: left; font-size: 20px;&quot;&gt;&lt;span style=&quot;font-family: Mina; background-color: initial; font-size: 20px;&quot;&gt;&amp;nbsp; &amp;nbsp; `~~15.17`&lt;/span&gt;&lt;/div&gt;" style="rounded=0;whiteSpace=wrap;html=1;strokeWidth=2;fillColor=#ffcccc;strokeColor=#36393d;align=center;spacing=10;fontSize=20;" parent="6SqKx-31DNEQ2xtWk_rO-88" vertex="1">
          <mxGeometry y="161.00000000000003" width="222.3320270270271" height="68.99999999999999" as="geometry" />
        </mxCell>
        <mxCell id="6SqKx-31DNEQ2xtWk_rO-93" value="" style="group;fontSize=18;" parent="6SqKx-31DNEQ2xtWk_rO-82" vertex="1" connectable="0">
          <mxGeometry x="352.6645945945947" width="214.66540540540544" height="230" as="geometry" />
        </mxCell>
        <mxCell id="6SqKx-31DNEQ2xtWk_rO-94" value="&lt;span style=&quot;font-family: Mina; font-size: 18px; font-weight: 700; text-align: right;&quot;&gt;Walston-Felix Model&lt;/span&gt;" style="rounded=0;whiteSpace=wrap;html=1;strokeWidth=2;fillColor=#cdeb8b;strokeColor=#36393d;fontSize=18;" parent="6SqKx-31DNEQ2xtWk_rO-93" vertex="1">
          <mxGeometry width="214.66540540540544" height="38.333333333333336" as="geometry" />
        </mxCell>
        <mxCell id="6SqKx-31DNEQ2xtWk_rO-95" value="&lt;span style=&quot;font-family: Mina; font-size: 18px; font-weight: 700;&quot;&gt;Effort (E)&lt;/span&gt;" style="rounded=0;whiteSpace=wrap;html=1;strokeWidth=2;fillColor=#ffcccc;strokeColor=#36393d;fontSize=18;" parent="6SqKx-31DNEQ2xtWk_rO-93" vertex="1">
          <mxGeometry y="38.333333333333336" width="214.66540540540544" height="38.333333333333336" as="geometry" />
        </mxCell>
        <mxCell id="6SqKx-31DNEQ2xtWk_rO-96" value="&lt;span style=&quot;font-family: Mina; font-size: 20px;&quot;&gt;`(frac{100}{5.2})^{frac{1}{0.91}}~~25.8`&lt;/span&gt;" style="rounded=0;whiteSpace=wrap;html=1;strokeWidth=2;fillColor=#ffcccc;strokeColor=#36393d;fontSize=20;" parent="6SqKx-31DNEQ2xtWk_rO-93" vertex="1">
          <mxGeometry y="76.66666666666667" width="214.66540540540544" height="84.33333333333333" as="geometry" />
        </mxCell>
        <mxCell id="6SqKx-31DNEQ2xtWk_rO-97" value="&lt;span style=&quot;font-size: 20px; font-family: Mina;&quot;&gt;`D=4.1(25.8)^{0.36}`&lt;/span&gt;&lt;div style=&quot;font-size: 20px; text-align: left;&quot;&gt;&lt;span style=&quot;font-family: Mina; background-color: initial; font-size: 20px;&quot;&gt;&amp;nbsp; &amp;nbsp; `~~13.2`&lt;/span&gt;&lt;/div&gt;" style="rounded=0;whiteSpace=wrap;html=1;strokeWidth=2;fillColor=#ffcccc;strokeColor=#36393d;fontSize=20;" parent="6SqKx-31DNEQ2xtWk_rO-93" vertex="1">
          <mxGeometry y="161.00000000000003" width="214.66540540540544" height="68.99999999999999" as="geometry" />
        </mxCell>
        <mxCell id="gq76qE475kr2s1ayNZPQ-14" value="COCOMO Models" style="shape=hexagon;perimeter=hexagonPerimeter2;whiteSpace=wrap;fixedSize=1;size=16;fillColor=#cdeb8b;strokeColor=#36393d;fontFamily=Mina;fontSize=40;strokeWidth=2;align=center;spacingLeft=0;spacingBottom=0;fillStyle=hachure;fontStyle=1;" vertex="1" parent="1">
          <mxGeometry x="241" y="2360" width="345" height="67.14" as="geometry" />
        </mxCell>
        <mxCell id="gq76qE475kr2s1ayNZPQ-36" value="" style="group" vertex="1" connectable="0" parent="1">
          <mxGeometry x="33" y="2460" width="760.91" height="290" as="geometry" />
        </mxCell>
        <mxCell id="gq76qE475kr2s1ayNZPQ-32" value="" style="group;fillColor=none;strokeColor=none;container=0;" vertex="1" connectable="0" parent="gq76qE475kr2s1ayNZPQ-36">
          <mxGeometry x="560.91" width="170" height="200.91" as="geometry" />
        </mxCell>
        <mxCell id="gq76qE475kr2s1ayNZPQ-24" value="`frac{&quot;Effort&quot;}{Time}=frac{E}{T}`" style="rounded=0;whiteSpace=wrap;html=1;strokeWidth=2;fillColor=#bac8d3;strokeColor=#23445d;fontFamily=Mina;fontStyle=0;fontSize=24;" vertex="1" parent="gq76qE475kr2s1ayNZPQ-36">
          <mxGeometry x="140.91" y="200.90999999999985" width="620" height="89.09" as="geometry" />
        </mxCell>
        <mxCell id="gq76qE475kr2s1ayNZPQ-7" value="&lt;span style=&quot;font-family: Mina; font-size: 30px; font-weight: 700;&quot;&gt;Organic&lt;/span&gt;" style="rounded=0;whiteSpace=wrap;html=1;strokeWidth=2;fillColor=#ffcccc;strokeColor=#36393d;fontSize=30;" vertex="1" parent="gq76qE475kr2s1ayNZPQ-36">
          <mxGeometry x="140.91" width="200" height="59.09" as="geometry" />
        </mxCell>
        <mxCell id="gq76qE475kr2s1ayNZPQ-8" value="&lt;span style=&quot;font-family: Mina; font-size: 28px;&quot;&gt;`2.4(KL)^{1.05}`&lt;/span&gt;" style="rounded=0;whiteSpace=wrap;html=1;strokeWidth=2;fillColor=#ffcccc;strokeColor=#36393d;fontSize=28;" vertex="1" parent="gq76qE475kr2s1ayNZPQ-36">
          <mxGeometry x="140.91" y="59.090000000000146" width="200.09" height="70.91000000000004" as="geometry" />
        </mxCell>
        <mxCell id="gq76qE475kr2s1ayNZPQ-9" value="&lt;span style=&quot;font-family: Mina; font-size: 29px;&quot;&gt;`2.5(E)^{0.38}`&lt;/span&gt;" style="rounded=0;whiteSpace=wrap;html=1;strokeWidth=2;fillColor=#ffcccc;strokeColor=#36393d;" vertex="1" parent="gq76qE475kr2s1ayNZPQ-36">
          <mxGeometry x="140.91" y="130" width="200" height="70.91" as="geometry" />
        </mxCell>
        <mxCell id="gq76qE475kr2s1ayNZPQ-11" value="&lt;span style=&quot;font-family: Mina; font-size: 30px; font-weight: 700;&quot;&gt;Semidetached&lt;/span&gt;" style="rounded=0;whiteSpace=wrap;html=1;strokeWidth=2;fillColor=#ffff88;strokeColor=#36393d;fontSize=30;" vertex="1" parent="gq76qE475kr2s1ayNZPQ-36">
          <mxGeometry x="341" width="219.90666018680233" height="59.090909090909136" as="geometry" />
        </mxCell>
        <mxCell id="gq76qE475kr2s1ayNZPQ-12" value="&lt;span style=&quot;font-family: Mina; font-size: 28px;&quot;&gt;`3(KL)^{1.12}`&lt;/span&gt;" style="rounded=0;whiteSpace=wrap;html=1;strokeWidth=2;fillColor=#ffff88;strokeColor=#36393d;fontSize=28;" vertex="1" parent="gq76qE475kr2s1ayNZPQ-36">
          <mxGeometry x="341" y="59.090000000000146" width="219.91000000000005" height="70.91000000000004" as="geometry" />
        </mxCell>
        <mxCell id="gq76qE475kr2s1ayNZPQ-13" value="&lt;span style=&quot;font-family: Mina; font-size: 29px;&quot;&gt;`2.5(E)^{0.35}`&lt;/span&gt;" style="rounded=0;whiteSpace=wrap;html=1;strokeWidth=2;fillColor=#ffff88;strokeColor=#36393d;" vertex="1" parent="gq76qE475kr2s1ayNZPQ-36">
          <mxGeometry x="341" y="130.00090909090886" width="219.90666018680233" height="70.90909090909095" as="geometry" />
        </mxCell>
        <mxCell id="gq76qE475kr2s1ayNZPQ-20" value="&lt;span style=&quot;font-family: Mina; font-size: 30px; font-weight: 700;&quot;&gt;Embedded&lt;/span&gt;" style="rounded=0;whiteSpace=wrap;html=1;strokeWidth=2;fillColor=#ffcc99;strokeColor=#36393d;fontSize=30;" vertex="1" parent="gq76qE475kr2s1ayNZPQ-36">
          <mxGeometry x="560.91" width="200" height="59.09" as="geometry" />
        </mxCell>
        <mxCell id="gq76qE475kr2s1ayNZPQ-21" value="&lt;span style=&quot;font-family: Mina; font-size: 28px;&quot;&gt;`3.6(KL)^{1.2}`&lt;/span&gt;" style="rounded=0;whiteSpace=wrap;html=1;strokeWidth=2;fillColor=#ffcc99;strokeColor=#36393d;fontSize=28;" vertex="1" parent="gq76qE475kr2s1ayNZPQ-36">
          <mxGeometry x="560.91" y="59.090000000000146" width="200" height="70.91000000000004" as="geometry" />
        </mxCell>
        <mxCell id="gq76qE475kr2s1ayNZPQ-22" value="&lt;span style=&quot;font-family: Mina; font-size: 29px;&quot;&gt;`2.5(E)^{0.32}`&lt;/span&gt;" style="rounded=0;whiteSpace=wrap;html=1;strokeWidth=2;fillColor=#ffcc99;strokeColor=#36393d;" vertex="1" parent="gq76qE475kr2s1ayNZPQ-36">
          <mxGeometry x="560.91" y="130" width="200" height="70.91" as="geometry" />
        </mxCell>
        <mxCell id="gq76qE475kr2s1ayNZPQ-25" value="&lt;span style=&quot;font-family: Mina; font-size: 24px; font-weight: 700;&quot;&gt;Person (P)&lt;/span&gt;" style="rounded=0;whiteSpace=wrap;html=1;strokeWidth=2;fillColor=#cce5ff;strokeColor=#36393d;fontSize=24;" vertex="1" parent="gq76qE475kr2s1ayNZPQ-36">
          <mxGeometry y="200.90999999999985" width="140.9090288877913" height="89.09000000000005" as="geometry" />
        </mxCell>
        <mxCell id="gq76qE475kr2s1ayNZPQ-3" value="&lt;span style=&quot;font-family: Mina; font-size: 30px; font-weight: 700;&quot;&gt;Given&lt;/span&gt;" style="rounded=0;whiteSpace=wrap;html=1;strokeWidth=2;fillColor=#cce5ff;strokeColor=#36393d;fontSize=30;" vertex="1" parent="gq76qE475kr2s1ayNZPQ-36">
          <mxGeometry width="140.9090288877913" height="59.09090909090912" as="geometry" />
        </mxCell>
        <mxCell id="gq76qE475kr2s1ayNZPQ-4" value="&lt;span style=&quot;font-family: Mina; font-size: 24px; font-weight: 700;&quot;&gt;Effort (E)&lt;/span&gt;" style="rounded=0;whiteSpace=wrap;html=1;strokeWidth=2;fillColor=#cce5ff;strokeColor=#36393d;fontSize=24;" vertex="1" parent="gq76qE475kr2s1ayNZPQ-36">
          <mxGeometry y="59.090000000000146" width="140.91" height="70.91000000000003" as="geometry" />
        </mxCell>
        <mxCell id="gq76qE475kr2s1ayNZPQ-5" value="&lt;span style=&quot;font-family: Mina; font-size: 24px; font-weight: 700;&quot;&gt;Time (T)&lt;/span&gt;" style="rounded=0;whiteSpace=wrap;html=1;strokeWidth=2;fillColor=#cce5ff;strokeColor=#36393d;fontSize=24;" vertex="1" parent="gq76qE475kr2s1ayNZPQ-36">
          <mxGeometry y="130.00090909090886" width="140.9090288877913" height="70.90909090909093" as="geometry" />
        </mxCell>
        <mxCell id="gq76qE475kr2s1ayNZPQ-37" value="" style="group" vertex="1" connectable="0" parent="1">
          <mxGeometry x="71.5" y="1860" width="683" height="160" as="geometry" />
        </mxCell>
        <mxCell id="6SqKx-31DNEQ2xtWk_rO-81" value="&lt;div style=&quot;font-size: 20px;&quot;&gt;&lt;span style=&quot;font-size: 20px;&quot;&gt;&lt;b&gt;&amp;nbsp; &amp;nbsp;&amp;nbsp;&lt;/b&gt;&lt;/span&gt;&lt;span style=&quot;background-color: initial;&quot;&gt;&lt;b&gt;Compare the Walston-Felix Model with the SEL model on a software development expected to involve 100 efforts.&lt;/b&gt;&lt;/span&gt;&lt;/div&gt;&lt;div style=&quot;font-size: 20px;&quot;&gt;&lt;span style=&quot;background-color: initial;&quot;&gt;&lt;b&gt;&lt;br&gt;&lt;/b&gt;&lt;/span&gt;&lt;/div&gt;&lt;div&gt;&lt;b&gt;a&lt;/b&gt;.&amp;nbsp;&lt;span style=&quot;background-color: initial;&quot;&gt;Calculate the number of lines of source code that can be produced.&lt;/span&gt;&lt;/div&gt;&lt;div&gt;&lt;b&gt;b&lt;/b&gt;.&amp;nbsp;&lt;span style=&quot;background-color: initial;&quot;&gt;Calculate the duration of the development.&lt;/span&gt;&lt;/div&gt;" style="rounded=1;whiteSpace=wrap;html=1;strokeWidth=2;fillColor=#fad7ac;strokeColor=#000000;fontFamily=Mina;fontSize=20;fontStyle=0;align=left;spacing=10;arcSize=0;" parent="gq76qE475kr2s1ayNZPQ-37" vertex="1">
          <mxGeometry x="23" y="20" width="660" height="140" as="geometry" />
        </mxCell>
        <mxCell id="N6g_8ORdJpZUbQSrJJyO-1" value="3" style="ellipse;whiteSpace=wrap;html=1;aspect=fixed;fontFamily=Mina;fontStyle=1;fontSize=25;strokeWidth=2;fillColor=#a0522d;fontColor=#ffffff;strokeColor=#6D1F00;" parent="gq76qE475kr2s1ayNZPQ-37" vertex="1">
          <mxGeometry width="50" height="50" as="geometry" />
        </mxCell>
        <mxCell id="gq76qE475kr2s1ayNZPQ-38" value="" style="group" vertex="1" connectable="0" parent="1">
          <mxGeometry x="60" y="1440" width="683" height="110" as="geometry" />
        </mxCell>
        <mxCell id="6SqKx-31DNEQ2xtWk_rO-61" value="&lt;div style=&quot;&quot;&gt;&lt;b&gt;&amp;nbsp; &amp;nbsp; Use both the Walston-Felix Model and the SEL model for calculating the effort of software development expected to take 50 months duration.&lt;/b&gt;&lt;/div&gt;" style="rounded=1;whiteSpace=wrap;html=1;strokeWidth=2;fillColor=#fad7ac;strokeColor=#000000;fontFamily=Mina;fontSize=20;fontStyle=0;align=left;spacing=10;arcSize=0;" parent="gq76qE475kr2s1ayNZPQ-38" vertex="1">
          <mxGeometry x="23" y="20" width="660" height="90" as="geometry" />
        </mxCell>
        <mxCell id="N6g_8ORdJpZUbQSrJJyO-2" value="2" style="ellipse;whiteSpace=wrap;html=1;aspect=fixed;fontFamily=Mina;fontStyle=1;fontSize=25;strokeWidth=2;fillColor=#a0522d;fontColor=#ffffff;strokeColor=#6D1F00;" parent="gq76qE475kr2s1ayNZPQ-38" vertex="1">
          <mxGeometry width="50" height="50" as="geometry" />
        </mxCell>
        <mxCell id="gq76qE475kr2s1ayNZPQ-39" value="" style="group" vertex="1" connectable="0" parent="1">
          <mxGeometry x="60" y="900" width="684" height="160" as="geometry" />
        </mxCell>
        <mxCell id="6SqKx-31DNEQ2xtWk_rO-41" value="&lt;div style=&quot;font-size: 20px;&quot;&gt;&lt;span style=&quot;font-size: 20px;&quot;&gt;&lt;b&gt;&amp;nbsp; &amp;nbsp; Compare the Walston-Felix Model with the SEL model on a software development expected to take 50 efforts.&lt;/b&gt;&lt;/span&gt;&lt;/div&gt;&lt;div style=&quot;font-size: 20px;&quot;&gt;&lt;span style=&quot;font-size: 20px;&quot;&gt;&lt;b&gt;&lt;br&gt;&lt;/b&gt;&lt;/span&gt;&lt;/div&gt;&lt;div style=&quot;font-size: 20px;&quot;&gt;&lt;span style=&quot;font-size: 20px;&quot;&gt;&lt;b&gt;a.&amp;nbsp;&lt;/b&gt;&lt;/span&gt;&lt;span style=&quot;background-color: initial;&quot;&gt;Calculate the number of lines of source code that can be produced.&lt;/span&gt;&lt;/div&gt;&lt;div style=&quot;font-size: 20px;&quot;&gt;&lt;span style=&quot;font-size: 20px;&quot;&gt;&lt;b&gt;b.&amp;nbsp;&lt;/b&gt;&lt;/span&gt;&lt;span style=&quot;background-color: initial;&quot;&gt;Calculate the duration of the development.&lt;/span&gt;&lt;/div&gt;" style="rounded=1;whiteSpace=wrap;html=1;strokeWidth=2;fillColor=#fad7ac;strokeColor=#000000;fontFamily=Mina;fontSize=20;fontStyle=0;align=left;spacing=10;arcSize=0;" parent="gq76qE475kr2s1ayNZPQ-39" vertex="1">
          <mxGeometry x="24" y="20" width="660" height="140" as="geometry" />
        </mxCell>
        <mxCell id="N6g_8ORdJpZUbQSrJJyO-3" value="1" style="ellipse;whiteSpace=wrap;html=1;aspect=fixed;fontFamily=Mina;fontStyle=1;fontSize=25;strokeWidth=2;fillColor=#a0522d;fontColor=#ffffff;strokeColor=#6D1F00;" parent="gq76qE475kr2s1ayNZPQ-39" vertex="1">
          <mxGeometry width="50" height="50" as="geometry" />
        </mxCell>
        <mxCell id="gq76qE475kr2s1ayNZPQ-43" value="Examples" style="rounded=1;whiteSpace=wrap;html=1;fontSize=24;fillColor=#cdeb8b;strokeColor=#36393d;strokeWidth=2;fontFamily=Mina;arcSize=50;fontStyle=1" vertex="1" parent="1">
          <mxGeometry x="341.95" y="2790" width="142.11" height="40" as="geometry" />
        </mxCell>
        <mxCell id="gq76qE475kr2s1ayNZPQ-63" value="" style="group" vertex="1" connectable="0" parent="1">
          <mxGeometry x="179" y="3030" width="470" height="260" as="geometry" />
        </mxCell>
        <mxCell id="gq76qE475kr2s1ayNZPQ-47" value="&lt;span style=&quot;font-family: Mina; font-size: 30px; font-weight: 700;&quot;&gt;Given&lt;/span&gt;" style="rounded=0;whiteSpace=wrap;html=1;strokeWidth=2;fillColor=#cce5ff;strokeColor=#36393d;fontSize=30;container=0;" vertex="1" parent="gq76qE475kr2s1ayNZPQ-63">
          <mxGeometry width="126.33232050230515" height="52.978056426332316" as="geometry" />
        </mxCell>
        <mxCell id="gq76qE475kr2s1ayNZPQ-48" value="&lt;span style=&quot;font-family: Mina; font-size: 22px; font-weight: 700;&quot;&gt;Effort (E)&lt;/span&gt;" style="rounded=0;whiteSpace=wrap;html=1;strokeWidth=2;fillColor=#cce5ff;strokeColor=#36393d;fontSize=22;container=0;" vertex="1" parent="gq76qE475kr2s1ayNZPQ-63">
          <mxGeometry y="52.97724137931027" width="126.33319115523464" height="63.57448275862071" as="geometry" />
        </mxCell>
        <mxCell id="gq76qE475kr2s1ayNZPQ-49" value="&lt;span style=&quot;font-family: Mina; font-size: 22px; font-weight: 700;&quot;&gt;Time (T)&lt;/span&gt;" style="rounded=0;whiteSpace=wrap;html=1;strokeWidth=2;fillColor=#cce5ff;strokeColor=#36393d;fontSize=22;container=0;" vertex="1" parent="gq76qE475kr2s1ayNZPQ-63">
          <mxGeometry y="116.55253918495282" width="126.33232050230515" height="63.57366771159877" as="geometry" />
        </mxCell>
        <mxCell id="gq76qE475kr2s1ayNZPQ-50" value="&lt;span style=&quot;font-family: Mina; font-size: 22px; font-weight: 700;&quot;&gt;Person (P)&lt;/span&gt;" style="rounded=0;whiteSpace=wrap;html=1;strokeWidth=2;fillColor=#cce5ff;strokeColor=#36393d;fontSize=22;container=0;" vertex="1" parent="gq76qE475kr2s1ayNZPQ-63">
          <mxGeometry y="180.1262068965516" width="126.33232050230515" height="79.87379310344832" as="geometry" />
        </mxCell>
        <mxCell id="gq76qE475kr2s1ayNZPQ-44" value="&lt;span style=&quot;font-family: Mina; font-size: 30px; font-weight: 700;&quot;&gt;Organic&lt;/span&gt;" style="rounded=0;whiteSpace=wrap;html=1;strokeWidth=2;fillColor=#ffcccc;strokeColor=#36393d;fontSize=30;container=0;" vertex="1" parent="gq76qE475kr2s1ayNZPQ-63">
          <mxGeometry x="126.32999999999998" width="343.67" height="52.97724137931037" as="geometry" />
        </mxCell>
        <mxCell id="gq76qE475kr2s1ayNZPQ-45" value="&lt;span style=&quot;font-family: Mina; font-size: 24px;&quot;&gt;`2.4(2)^{1.05}=4.969&quot; PM&quot;`&lt;/span&gt;" style="rounded=0;whiteSpace=wrap;html=1;strokeWidth=2;fillColor=#ffcccc;strokeColor=#36393d;fontSize=24;align=left;spacingLeft=7;container=0;" vertex="1" parent="gq76qE475kr2s1ayNZPQ-63">
          <mxGeometry x="126.32999999999998" y="52.977241379310726" width="343.67" height="63.57448275862072" as="geometry" />
        </mxCell>
        <mxCell id="gq76qE475kr2s1ayNZPQ-46" value="&lt;span style=&quot;font-family: Mina; font-size: 24px;&quot;&gt;`2.5(4.969)^{0.38}=4.598&quot; M&quot;`&lt;/span&gt;" style="rounded=0;whiteSpace=wrap;html=1;strokeWidth=2;fillColor=#ffcccc;strokeColor=#36393d;fontSize=24;align=left;spacingLeft=7;container=0;" vertex="1" parent="gq76qE475kr2s1ayNZPQ-63">
          <mxGeometry x="126.32999999999998" y="116.55172413793116" width="343.67" height="63.57448275862072" as="geometry" />
        </mxCell>
        <mxCell id="gq76qE475kr2s1ayNZPQ-51" value="`frac{4.969}{4.598}=1.08&quot; Person&quot;`" style="rounded=0;whiteSpace=wrap;html=1;strokeWidth=2;fillColor=#bac8d3;strokeColor=#23445d;fontFamily=Mina;fontStyle=0;fontSize=24;align=left;spacingLeft=7;container=0;" vertex="1" parent="gq76qE475kr2s1ayNZPQ-63">
          <mxGeometry x="126.32999999999998" y="180.1262068965516" width="343.67" height="79.8737931034483" as="geometry" />
        </mxCell>
        <mxCell id="gq76qE475kr2s1ayNZPQ-65" value="" style="group" vertex="1" connectable="0" parent="1">
          <mxGeometry x="72" y="2843" width="683" height="160" as="geometry" />
        </mxCell>
        <mxCell id="gq76qE475kr2s1ayNZPQ-41" value="&lt;div style=&quot;&quot;&gt;&lt;span style=&quot;font-size: 20px;&quot;&gt;&lt;b&gt;&amp;nbsp; &amp;nbsp;&amp;nbsp;&lt;/b&gt;&lt;/span&gt;&lt;span style=&quot;background-color: initial;&quot;&gt;&lt;b&gt;Suppose that A project was estimated To be 2000 LOC Calculate for &lt;font color=&quot;#ff0000&quot;&gt;Organic &lt;/font&gt;model of development.&lt;/b&gt;&lt;/span&gt;&lt;/div&gt;&lt;div style=&quot;&quot;&gt;&lt;span style=&quot;background-color: initial;&quot;&gt;&lt;b&gt;-Effort&lt;/b&gt;&lt;/span&gt;&lt;/div&gt;&lt;div style=&quot;&quot;&gt;&lt;b style=&quot;background-color: initial;&quot;&gt;-Time&lt;/b&gt;&lt;/div&gt;&lt;div style=&quot;&quot;&gt;&lt;b style=&quot;background-color: initial;&quot;&gt;-Person Required&lt;/b&gt;&lt;/div&gt;" style="rounded=1;whiteSpace=wrap;html=1;strokeWidth=2;fillColor=#fad7ac;strokeColor=#000000;fontFamily=Mina;fontSize=20;fontStyle=0;align=left;spacing=10;arcSize=0;container=0;" vertex="1" parent="gq76qE475kr2s1ayNZPQ-65">
          <mxGeometry x="23" y="20" width="660" height="140" as="geometry" />
        </mxCell>
        <mxCell id="gq76qE475kr2s1ayNZPQ-60" value="`2000&quot; LOC&quot;=2&quot; KL&quot;`" style="rounded=1;whiteSpace=wrap;html=1;fontSize=25;fillColor=#cdeb8b;strokeColor=#36393d;strokeWidth=2;fontFamily=Mina;arcSize=21;fontStyle=0;container=0;" vertex="1" parent="gq76qE475kr2s1ayNZPQ-65">
          <mxGeometry x="380" y="90" width="283" height="60" as="geometry" />
        </mxCell>
        <mxCell id="gq76qE475kr2s1ayNZPQ-42" value="1" style="ellipse;whiteSpace=wrap;html=1;aspect=fixed;fontFamily=Mina;fontStyle=1;fontSize=25;strokeWidth=2;fillColor=#a0522d;fontColor=#ffffff;strokeColor=#6D1F00;container=0;" vertex="1" parent="gq76qE475kr2s1ayNZPQ-65">
          <mxGeometry width="50" height="50" as="geometry" />
        </mxCell>
        <mxCell id="gq76qE475kr2s1ayNZPQ-66" value="" style="group" vertex="1" connectable="0" parent="1">
          <mxGeometry x="72" y="3310" width="683" height="160" as="geometry" />
        </mxCell>
        <mxCell id="gq76qE475kr2s1ayNZPQ-67" value="&lt;div style=&quot;&quot;&gt;&lt;span style=&quot;font-size: 20px;&quot;&gt;&lt;b&gt;&amp;nbsp; &amp;nbsp;&amp;nbsp;&lt;/b&gt;&lt;/span&gt;&lt;span style=&quot;background-color: initial;&quot;&gt;&lt;b&gt;Analyze a project was estimated To be 4000 LOC, then Calculate for &lt;font color=&quot;#ff0000&quot;&gt;Organic&lt;/font&gt; model of development.&amp;nbsp;&lt;/b&gt;&lt;/span&gt;&lt;/div&gt;&lt;div style=&quot;&quot;&gt;&lt;span style=&quot;background-color: initial;&quot;&gt;&lt;b&gt;-Effort&lt;/b&gt;&lt;/span&gt;&lt;/div&gt;&lt;div style=&quot;&quot;&gt;&lt;b style=&quot;background-color: initial;&quot;&gt;-Time&lt;/b&gt;&lt;/div&gt;&lt;div style=&quot;&quot;&gt;&lt;b style=&quot;background-color: initial;&quot;&gt;-Person Required&lt;/b&gt;&lt;/div&gt;" style="rounded=1;whiteSpace=wrap;html=1;strokeWidth=2;fillColor=#fad7ac;strokeColor=#000000;fontFamily=Mina;fontSize=20;fontStyle=0;align=left;spacing=10;arcSize=0;container=0;" vertex="1" parent="gq76qE475kr2s1ayNZPQ-66">
          <mxGeometry x="23" y="20" width="660" height="140" as="geometry" />
        </mxCell>
        <mxCell id="gq76qE475kr2s1ayNZPQ-68" value="`4000&quot; LOC&quot;=4&quot; KL&quot;`" style="rounded=1;whiteSpace=wrap;html=1;fontSize=25;fillColor=#cdeb8b;strokeColor=#36393d;strokeWidth=2;fontFamily=Mina;arcSize=21;fontStyle=0;container=0;" vertex="1" parent="gq76qE475kr2s1ayNZPQ-66">
          <mxGeometry x="380" y="90" width="283" height="60" as="geometry" />
        </mxCell>
        <mxCell id="gq76qE475kr2s1ayNZPQ-69" value="2" style="ellipse;whiteSpace=wrap;html=1;aspect=fixed;fontFamily=Mina;fontStyle=1;fontSize=25;strokeWidth=2;fillColor=#a0522d;fontColor=#ffffff;strokeColor=#6D1F00;container=0;" vertex="1" parent="gq76qE475kr2s1ayNZPQ-66">
          <mxGeometry width="50" height="50" as="geometry" />
        </mxCell>
        <mxCell id="gq76qE475kr2s1ayNZPQ-79" value="" style="group" vertex="1" connectable="0" parent="1">
          <mxGeometry x="72" y="3790" width="683" height="160" as="geometry" />
        </mxCell>
        <mxCell id="gq76qE475kr2s1ayNZPQ-80" value="&lt;div style=&quot;&quot;&gt;&lt;span style=&quot;font-size: 20px;&quot;&gt;&lt;b&gt;&amp;nbsp; &amp;nbsp;&amp;nbsp;&lt;/b&gt;&lt;/span&gt;&lt;span style=&quot;background-color: initial;&quot;&gt;&lt;b&gt;Suppose that A project was estimated To be 4000 LOC Calculate for &lt;font color=&quot;#ff0000&quot;&gt;Embedded &lt;/font&gt;model of development.&amp;nbsp;&lt;/b&gt;&lt;/span&gt;&lt;/div&gt;&lt;div style=&quot;&quot;&gt;&lt;span style=&quot;background-color: initial;&quot;&gt;&lt;b&gt;-Effort&lt;/b&gt;&lt;/span&gt;&lt;/div&gt;&lt;div style=&quot;&quot;&gt;&lt;b style=&quot;background-color: initial;&quot;&gt;-Time&lt;/b&gt;&lt;/div&gt;&lt;div style=&quot;&quot;&gt;&lt;b style=&quot;background-color: initial;&quot;&gt;-Person Required&lt;/b&gt;&lt;/div&gt;" style="rounded=1;whiteSpace=wrap;html=1;strokeWidth=2;fillColor=#fad7ac;strokeColor=#000000;fontFamily=Mina;fontSize=20;fontStyle=0;align=left;spacing=10;arcSize=0;container=0;" vertex="1" parent="gq76qE475kr2s1ayNZPQ-79">
          <mxGeometry x="23" y="20" width="660" height="140" as="geometry" />
        </mxCell>
        <mxCell id="gq76qE475kr2s1ayNZPQ-81" value="`4000&quot; LOC&quot;=4&quot; KL&quot;`" style="rounded=1;whiteSpace=wrap;html=1;fontSize=25;fillColor=#cdeb8b;strokeColor=#36393d;strokeWidth=2;fontFamily=Mina;arcSize=21;fontStyle=0;container=0;" vertex="1" parent="gq76qE475kr2s1ayNZPQ-79">
          <mxGeometry x="360" y="90" width="303" height="60" as="geometry" />
        </mxCell>
        <mxCell id="gq76qE475kr2s1ayNZPQ-82" value="3" style="ellipse;whiteSpace=wrap;html=1;aspect=fixed;fontFamily=Mina;fontStyle=1;fontSize=25;strokeWidth=2;fillColor=#a0522d;fontColor=#ffffff;strokeColor=#6D1F00;container=0;" vertex="1" parent="gq76qE475kr2s1ayNZPQ-79">
          <mxGeometry width="50" height="50" as="geometry" />
        </mxCell>
        <mxCell id="gq76qE475kr2s1ayNZPQ-83" value="" style="group" vertex="1" connectable="0" parent="1">
          <mxGeometry x="168" y="3530" width="491" height="260" as="geometry" />
        </mxCell>
        <mxCell id="gq76qE475kr2s1ayNZPQ-71" value="&lt;span style=&quot;font-family: Mina; font-size: 30px; font-weight: 700;&quot;&gt;Given&lt;/span&gt;" style="rounded=0;whiteSpace=wrap;html=1;strokeWidth=2;fillColor=#cce5ff;strokeColor=#36393d;fontSize=30;container=0;" vertex="1" parent="gq76qE475kr2s1ayNZPQ-83">
          <mxGeometry width="126.33232050230515" height="52.978056426332316" as="geometry" />
        </mxCell>
        <mxCell id="gq76qE475kr2s1ayNZPQ-72" value="&lt;span style=&quot;font-family: Mina; font-size: 22px; font-weight: 700;&quot;&gt;Effort (E)&lt;/span&gt;" style="rounded=0;whiteSpace=wrap;html=1;strokeWidth=2;fillColor=#cce5ff;strokeColor=#36393d;fontSize=22;container=0;" vertex="1" parent="gq76qE475kr2s1ayNZPQ-83">
          <mxGeometry y="52.97724137931027" width="126.33319115523464" height="63.57448275862071" as="geometry" />
        </mxCell>
        <mxCell id="gq76qE475kr2s1ayNZPQ-73" value="&lt;span style=&quot;font-family: Mina; font-size: 22px; font-weight: 700;&quot;&gt;Time (T)&lt;/span&gt;" style="rounded=0;whiteSpace=wrap;html=1;strokeWidth=2;fillColor=#cce5ff;strokeColor=#36393d;fontSize=22;container=0;" vertex="1" parent="gq76qE475kr2s1ayNZPQ-83">
          <mxGeometry y="116.55253918495282" width="126.33232050230515" height="63.57366771159877" as="geometry" />
        </mxCell>
        <mxCell id="gq76qE475kr2s1ayNZPQ-74" value="&lt;span style=&quot;font-family: Mina; font-size: 22px; font-weight: 700;&quot;&gt;Person (P)&lt;/span&gt;" style="rounded=0;whiteSpace=wrap;html=1;strokeWidth=2;fillColor=#cce5ff;strokeColor=#36393d;fontSize=22;container=0;" vertex="1" parent="gq76qE475kr2s1ayNZPQ-83">
          <mxGeometry y="180.1262068965516" width="126.33232050230515" height="79.87379310344832" as="geometry" />
        </mxCell>
        <mxCell id="gq76qE475kr2s1ayNZPQ-75" value="&lt;span style=&quot;font-family: Mina; font-size: 30px; font-weight: 700;&quot;&gt;Organic&lt;/span&gt;" style="rounded=0;whiteSpace=wrap;html=1;strokeWidth=2;fillColor=#ffcccc;strokeColor=#36393d;fontSize=30;container=0;" vertex="1" parent="gq76qE475kr2s1ayNZPQ-83">
          <mxGeometry x="126.32999999999998" width="364.67" height="52.98" as="geometry" />
        </mxCell>
        <mxCell id="gq76qE475kr2s1ayNZPQ-76" value="&lt;font face=&quot;Mina&quot;&gt;`2.4(4)^{1.05}=10.289&quot; PM&quot;`&lt;/font&gt;" style="rounded=0;whiteSpace=wrap;html=1;strokeWidth=2;fillColor=#ffcccc;strokeColor=#36393d;fontSize=24;align=left;spacingLeft=7;container=0;" vertex="1" parent="gq76qE475kr2s1ayNZPQ-83">
          <mxGeometry x="126.32999999999998" y="52.98000000000002" width="364.67" height="63.57" as="geometry" />
        </mxCell>
        <mxCell id="gq76qE475kr2s1ayNZPQ-77" value="&lt;font face=&quot;Mina&quot;&gt;`2.5(10.289)^{0.38}=6.0623&quot; M&quot;`&lt;/font&gt;" style="rounded=0;whiteSpace=wrap;html=1;strokeWidth=2;fillColor=#ffcccc;strokeColor=#36393d;fontSize=24;align=left;spacingLeft=7;container=0;" vertex="1" parent="gq76qE475kr2s1ayNZPQ-83">
          <mxGeometry x="126.32999999999998" y="116.55000000000018" width="364.67" height="63.57" as="geometry" />
        </mxCell>
        <mxCell id="gq76qE475kr2s1ayNZPQ-78" value="`frac{10.289}{6.0623}=1.6972&quot; Person&quot;`" style="rounded=0;whiteSpace=wrap;html=1;strokeWidth=2;fillColor=#bac8d3;strokeColor=#23445d;fontFamily=Mina;fontStyle=0;fontSize=24;align=left;spacingLeft=7;container=0;" vertex="1" parent="gq76qE475kr2s1ayNZPQ-83">
          <mxGeometry x="126.32999999999998" y="180.1300000000001" width="364.67" height="79.87" as="geometry" />
        </mxCell>
        <mxCell id="gq76qE475kr2s1ayNZPQ-84" value="" style="group" vertex="1" connectable="0" parent="1">
          <mxGeometry x="168" y="3970" width="491" height="260" as="geometry" />
        </mxCell>
        <mxCell id="gq76qE475kr2s1ayNZPQ-85" value="&lt;span style=&quot;font-family: Mina; font-size: 30px; font-weight: 700;&quot;&gt;Given&lt;/span&gt;" style="rounded=0;whiteSpace=wrap;html=1;strokeWidth=2;fillColor=#cce5ff;strokeColor=#36393d;fontSize=30;container=0;" vertex="1" parent="gq76qE475kr2s1ayNZPQ-84">
          <mxGeometry width="126.33232050230515" height="52.978056426332316" as="geometry" />
        </mxCell>
        <mxCell id="gq76qE475kr2s1ayNZPQ-86" value="&lt;span style=&quot;font-family: Mina; font-size: 22px; font-weight: 700;&quot;&gt;Effort (E)&lt;/span&gt;" style="rounded=0;whiteSpace=wrap;html=1;strokeWidth=2;fillColor=#cce5ff;strokeColor=#36393d;fontSize=22;container=0;" vertex="1" parent="gq76qE475kr2s1ayNZPQ-84">
          <mxGeometry y="52.97724137931027" width="126.33319115523464" height="63.57448275862071" as="geometry" />
        </mxCell>
        <mxCell id="gq76qE475kr2s1ayNZPQ-87" value="&lt;span style=&quot;font-family: Mina; font-size: 22px; font-weight: 700;&quot;&gt;Time (T)&lt;/span&gt;" style="rounded=0;whiteSpace=wrap;html=1;strokeWidth=2;fillColor=#cce5ff;strokeColor=#36393d;fontSize=22;container=0;" vertex="1" parent="gq76qE475kr2s1ayNZPQ-84">
          <mxGeometry y="116.55253918495282" width="126.33232050230515" height="63.57366771159877" as="geometry" />
        </mxCell>
        <mxCell id="gq76qE475kr2s1ayNZPQ-88" value="&lt;span style=&quot;font-family: Mina; font-size: 22px; font-weight: 700;&quot;&gt;Person (P)&lt;/span&gt;" style="rounded=0;whiteSpace=wrap;html=1;strokeWidth=2;fillColor=#cce5ff;strokeColor=#36393d;fontSize=22;container=0;" vertex="1" parent="gq76qE475kr2s1ayNZPQ-84">
          <mxGeometry y="180.1262068965516" width="126.33232050230515" height="79.87379310344832" as="geometry" />
        </mxCell>
        <mxCell id="gq76qE475kr2s1ayNZPQ-89" value="&lt;font face=&quot;Mina&quot;&gt;&lt;b&gt;Embedded&lt;/b&gt;&lt;/font&gt;" style="rounded=0;whiteSpace=wrap;html=1;strokeWidth=2;fillColor=#ffcc99;strokeColor=#36393d;fontSize=30;container=0;" vertex="1" parent="gq76qE475kr2s1ayNZPQ-84">
          <mxGeometry x="126.32999999999998" width="364.67" height="52.98" as="geometry" />
        </mxCell>
        <mxCell id="gq76qE475kr2s1ayNZPQ-90" value="&lt;font face=&quot;Mina&quot;&gt;`3.6(4)^{1.2}=19&quot; PM&quot;`&lt;/font&gt;" style="rounded=0;whiteSpace=wrap;html=1;strokeWidth=2;fillColor=#ffcc99;strokeColor=#36393d;fontSize=24;align=left;spacingLeft=7;container=0;" vertex="1" parent="gq76qE475kr2s1ayNZPQ-84">
          <mxGeometry x="126.32999999999998" y="52.98000000000002" width="364.67" height="63.57" as="geometry" />
        </mxCell>
        <mxCell id="gq76qE475kr2s1ayNZPQ-91" value="&lt;font face=&quot;Mina&quot;&gt;`2.5(19)^{0.32}=6.414&quot; M&quot;`&lt;/font&gt;" style="rounded=0;whiteSpace=wrap;html=1;strokeWidth=2;fillColor=#ffcc99;strokeColor=#36393d;fontSize=24;align=left;spacingLeft=7;container=0;" vertex="1" parent="gq76qE475kr2s1ayNZPQ-84">
          <mxGeometry x="126.32999999999998" y="116.55000000000018" width="364.67" height="63.57" as="geometry" />
        </mxCell>
        <mxCell id="gq76qE475kr2s1ayNZPQ-92" value="`frac{19}{6.414}=2.96&quot; Person&quot;`" style="rounded=0;whiteSpace=wrap;html=1;strokeWidth=2;fillColor=#bac8d3;strokeColor=#23445d;fontFamily=Mina;fontStyle=0;fontSize=24;align=left;spacingLeft=7;container=0;" vertex="1" parent="gq76qE475kr2s1ayNZPQ-84">
          <mxGeometry x="126.32999999999998" y="180.1300000000001" width="364.67" height="79.87" as="geometry" />
        </mxCell>
        <mxCell id="gq76qE475kr2s1ayNZPQ-113" value="" style="group" vertex="1" connectable="0" parent="1">
          <mxGeometry x="59" y="4230" width="710" height="160" as="geometry" />
        </mxCell>
        <mxCell id="gq76qE475kr2s1ayNZPQ-95" value="&lt;div style=&quot;&quot;&gt;&lt;span style=&quot;font-size: 20px;&quot;&gt;&lt;b&gt;&amp;nbsp; &amp;nbsp;&amp;nbsp;&lt;/b&gt;&lt;/span&gt;&lt;span style=&quot;background-color: initial;&quot;&gt;&lt;b&gt;Calculate for each 3 model of development by &lt;font color=&quot;#ff0000&quot;&gt;Organic Semidetached&lt;/font&gt;&lt;/b&gt;&lt;/span&gt;&lt;/div&gt;&lt;div style=&quot;&quot;&gt;&lt;span style=&quot;background-color: initial;&quot;&gt;&lt;b&gt;to be 10000 Lines of Code&lt;/b&gt;&lt;/span&gt;&lt;/div&gt;&lt;div style=&quot;&quot;&gt;&lt;span style=&quot;background-color: initial;&quot;&gt;&lt;b&gt;-Effort&lt;/b&gt;&lt;/span&gt;&lt;/div&gt;&lt;div style=&quot;&quot;&gt;&lt;b style=&quot;background-color: initial;&quot;&gt;-Time&lt;/b&gt;&lt;/div&gt;&lt;div style=&quot;&quot;&gt;&lt;b style=&quot;background-color: initial;&quot;&gt;-Person Required&lt;/b&gt;&lt;/div&gt;" style="rounded=1;whiteSpace=wrap;html=1;strokeWidth=2;fillColor=#fad7ac;strokeColor=#000000;fontFamily=Mina;fontSize=20;fontStyle=0;align=left;spacing=10;arcSize=0;container=0;" vertex="1" parent="gq76qE475kr2s1ayNZPQ-113">
          <mxGeometry x="23" y="20" width="687" height="140" as="geometry" />
        </mxCell>
        <mxCell id="gq76qE475kr2s1ayNZPQ-96" value="`10000 &quot; LOC&quot;=10&quot; KL&quot;`" style="rounded=1;whiteSpace=wrap;html=1;fontSize=24;fillColor=#cdeb8b;strokeColor=#36393d;strokeWidth=2;fontFamily=Mina;arcSize=21;fontStyle=0;container=0;" vertex="1" parent="gq76qE475kr2s1ayNZPQ-113">
          <mxGeometry x="392" y="90" width="303" height="60" as="geometry" />
        </mxCell>
        <mxCell id="gq76qE475kr2s1ayNZPQ-97" value="4" style="ellipse;whiteSpace=wrap;html=1;aspect=fixed;fontFamily=Mina;fontStyle=1;fontSize=25;strokeWidth=2;fillColor=#a0522d;fontColor=#ffffff;strokeColor=#6D1F00;container=0;" vertex="1" parent="gq76qE475kr2s1ayNZPQ-113">
          <mxGeometry width="50" height="50" as="geometry" />
        </mxCell>
        <mxCell id="gq76qE475kr2s1ayNZPQ-117" value="" style="group" vertex="1" connectable="0" parent="1">
          <mxGeometry x="25" y="4405" width="780" height="260" as="geometry" />
        </mxCell>
        <mxCell id="gq76qE475kr2s1ayNZPQ-99" value="&lt;span style=&quot;font-family: Mina; font-size: 30px; font-weight: 700;&quot;&gt;Given&lt;/span&gt;" style="rounded=0;whiteSpace=wrap;html=1;strokeWidth=2;fillColor=#cce5ff;strokeColor=#36393d;fontSize=30;container=0;" vertex="1" parent="gq76qE475kr2s1ayNZPQ-117">
          <mxGeometry width="126.33232050230515" height="52.978056426332316" as="geometry" />
        </mxCell>
        <mxCell id="gq76qE475kr2s1ayNZPQ-100" value="&lt;span style=&quot;font-family: Mina; font-size: 22px; font-weight: 700;&quot;&gt;Effort (E)&lt;/span&gt;" style="rounded=0;whiteSpace=wrap;html=1;strokeWidth=2;fillColor=#cce5ff;strokeColor=#36393d;fontSize=22;container=0;" vertex="1" parent="gq76qE475kr2s1ayNZPQ-117">
          <mxGeometry y="52.977241379310726" width="126.33319115523464" height="63.57448275862071" as="geometry" />
        </mxCell>
        <mxCell id="gq76qE475kr2s1ayNZPQ-101" value="&lt;span style=&quot;font-family: Mina; font-size: 22px; font-weight: 700;&quot;&gt;Time (T)&lt;/span&gt;" style="rounded=0;whiteSpace=wrap;html=1;strokeWidth=2;fillColor=#cce5ff;strokeColor=#36393d;fontSize=22;container=0;" vertex="1" parent="gq76qE475kr2s1ayNZPQ-117">
          <mxGeometry y="116.55253918495328" width="126.33232050230515" height="63.57366771159877" as="geometry" />
        </mxCell>
        <mxCell id="gq76qE475kr2s1ayNZPQ-102" value="&lt;span style=&quot;font-family: Mina; font-size: 22px; font-weight: 700;&quot;&gt;Person (P)&lt;/span&gt;" style="rounded=0;whiteSpace=wrap;html=1;strokeWidth=2;fillColor=#cce5ff;strokeColor=#36393d;fontSize=22;container=0;" vertex="1" parent="gq76qE475kr2s1ayNZPQ-117">
          <mxGeometry y="180.1262068965516" width="126.33232050230515" height="79.87379310344832" as="geometry" />
        </mxCell>
        <mxCell id="gq76qE475kr2s1ayNZPQ-111" value="" style="group" vertex="1" connectable="0" parent="gq76qE475kr2s1ayNZPQ-117">
          <mxGeometry x="126.33000000000001" width="333.67" height="260" as="geometry" />
        </mxCell>
        <mxCell id="gq76qE475kr2s1ayNZPQ-103" value="&lt;span style=&quot;font-family: Mina; font-weight: 700;&quot;&gt;Organic&lt;/span&gt;" style="rounded=0;whiteSpace=wrap;html=1;strokeWidth=2;fillColor=#ffcccc;strokeColor=#36393d;fontSize=30;container=0;" vertex="1" parent="gq76qE475kr2s1ayNZPQ-111">
          <mxGeometry width="333.67" height="52.98" as="geometry" />
        </mxCell>
        <mxCell id="gq76qE475kr2s1ayNZPQ-104" value="&lt;span style=&quot;font-family: Mina;&quot;&gt;`2.4(10)^{1.05}=26.93&quot; PM&quot;`&lt;/span&gt;" style="rounded=0;whiteSpace=wrap;html=1;strokeWidth=2;fillColor=#ffcccc;strokeColor=#36393d;fontSize=24;align=left;spacingLeft=7;container=0;" vertex="1" parent="gq76qE475kr2s1ayNZPQ-111">
          <mxGeometry y="52.97999999999956" width="333.67" height="63.57" as="geometry" />
        </mxCell>
        <mxCell id="gq76qE475kr2s1ayNZPQ-105" value="&lt;font face=&quot;Mina&quot;&gt;`2.5(26.93)^{0.38}=8.74&quot; M&quot;`&lt;/font&gt;" style="rounded=0;whiteSpace=wrap;html=1;strokeWidth=2;fillColor=#ffcccc;strokeColor=#36393d;fontSize=24;align=left;spacingLeft=7;container=0;" vertex="1" parent="gq76qE475kr2s1ayNZPQ-111">
          <mxGeometry y="116.55000000000018" width="333.67" height="63.57" as="geometry" />
        </mxCell>
        <mxCell id="gq76qE475kr2s1ayNZPQ-106" value="`frac{26.93}{8.74}=3.08&quot; Person&quot;`" style="rounded=0;whiteSpace=wrap;html=1;strokeWidth=2;fillColor=#bac8d3;strokeColor=#23445d;fontFamily=Mina;fontStyle=0;fontSize=24;align=left;spacingLeft=7;container=0;" vertex="1" parent="gq76qE475kr2s1ayNZPQ-111">
          <mxGeometry y="180.1300000000001" width="333.67" height="79.87" as="geometry" />
        </mxCell>
        <mxCell id="gq76qE475kr2s1ayNZPQ-116" value="" style="group" vertex="1" connectable="0" parent="gq76qE475kr2s1ayNZPQ-117">
          <mxGeometry x="460" width="320" height="260" as="geometry" />
        </mxCell>
        <mxCell id="gq76qE475kr2s1ayNZPQ-107" value="&lt;font face=&quot;Mina&quot;&gt;&lt;b&gt;Semidetached&lt;/b&gt;&lt;/font&gt;" style="rounded=0;whiteSpace=wrap;html=1;strokeWidth=2;fillColor=#ffff88;strokeColor=#36393d;fontSize=30;container=0;" vertex="1" parent="gq76qE475kr2s1ayNZPQ-116">
          <mxGeometry width="319.99999999999994" height="52.98" as="geometry" />
        </mxCell>
        <mxCell id="gq76qE475kr2s1ayNZPQ-108" value="&lt;font face=&quot;Mina&quot;&gt;`3(10)^{1.12}=39.55&quot; PM&quot;`&lt;/font&gt;" style="rounded=0;whiteSpace=wrap;html=1;strokeWidth=2;fillColor=#ffff88;strokeColor=#36393d;fontSize=24;align=left;spacingLeft=7;container=0;" vertex="1" parent="gq76qE475kr2s1ayNZPQ-116">
          <mxGeometry y="52.97999999999956" width="319.99999999999994" height="63.57" as="geometry" />
        </mxCell>
        <mxCell id="gq76qE475kr2s1ayNZPQ-109" value="&lt;font face=&quot;Mina&quot;&gt;`2.5(39.55)^{0.35}=9.06&quot; M&quot;`&lt;/font&gt;" style="rounded=0;whiteSpace=wrap;html=1;strokeWidth=2;fillColor=#ffff88;strokeColor=#36393d;fontSize=24;align=left;spacingLeft=7;container=0;" vertex="1" parent="gq76qE475kr2s1ayNZPQ-116">
          <mxGeometry y="116.55000000000018" width="319.99999999999994" height="63.57" as="geometry" />
        </mxCell>
        <mxCell id="gq76qE475kr2s1ayNZPQ-110" value="`frac{39.55}{9.06}=4.37&quot; Person&quot;`" style="rounded=0;whiteSpace=wrap;html=1;strokeWidth=2;fillColor=#bac8d3;strokeColor=#23445d;fontFamily=Mina;fontStyle=0;fontSize=24;align=left;spacingLeft=7;container=0;" vertex="1" parent="gq76qE475kr2s1ayNZPQ-116">
          <mxGeometry y="180.1300000000001" width="319.99999999999994" height="79.87" as="geometry" />
        </mxCell>
        <mxCell id="gq76qE475kr2s1ayNZPQ-118" value="Function Point" style="shape=hexagon;perimeter=hexagonPerimeter2;whiteSpace=wrap;fixedSize=1;size=16;fillColor=#cdeb8b;strokeColor=#36393d;fontFamily=Mina;fontSize=40;strokeWidth=2;align=center;spacingLeft=0;spacingBottom=0;fillStyle=hachure;fontStyle=1;" vertex="1" parent="1">
          <mxGeometry x="241" y="4710" width="349" height="67.14" as="geometry" />
        </mxCell>
        <mxCell id="gq76qE475kr2s1ayNZPQ-154" value="" style="group" vertex="1" connectable="0" parent="1">
          <mxGeometry x="59" y="5140" width="710" height="120" as="geometry" />
        </mxCell>
        <mxCell id="gq76qE475kr2s1ayNZPQ-151" value="&lt;div style=&quot;&quot;&gt;&lt;span style=&quot;font-size: 20px;&quot;&gt;&lt;b&gt;&amp;nbsp; &amp;nbsp;&amp;nbsp;&lt;/b&gt;&lt;/span&gt;&lt;span style=&quot;background-color: initial;&quot;&gt;&lt;b&gt;if we assume that 310 FP are estimated in total and that average FP productivity based on past projects is 5.5 FP/ pm, then the overall &lt;font color=&quot;#ff0000&quot;&gt;Effort &lt;/font&gt;for the project is:&lt;/b&gt;&lt;/span&gt;&lt;/div&gt;" style="rounded=1;whiteSpace=wrap;html=1;strokeWidth=2;fillColor=#fad7ac;strokeColor=#000000;fontFamily=Mina;fontSize=20;fontStyle=0;align=left;spacing=10;arcSize=0;container=0;" vertex="1" parent="gq76qE475kr2s1ayNZPQ-154">
          <mxGeometry x="23" y="20" width="687" height="100" as="geometry" />
        </mxCell>
        <mxCell id="gq76qE475kr2s1ayNZPQ-153" value="1" style="ellipse;whiteSpace=wrap;html=1;aspect=fixed;fontFamily=Mina;fontStyle=1;fontSize=25;strokeWidth=2;fillColor=#a0522d;fontColor=#ffffff;strokeColor=#6D1F00;container=0;" vertex="1" parent="gq76qE475kr2s1ayNZPQ-154">
          <mxGeometry width="50" height="50" as="geometry" />
        </mxCell>
        <mxCell id="gq76qE475kr2s1ayNZPQ-156" value="&lt;div style=&quot;font-size: 25px;&quot;&gt;&lt;span style=&quot;font-size: 25px;&quot;&gt;`&quot;Effort&quot;=frac{&quot;Function Point&quot;}{&quot;Productivity&quot;}=frac{310}{5.5}=56 &quot; Person-Month&quot;`&lt;/span&gt;&lt;/div&gt;" style="rounded=1;whiteSpace=wrap;html=1;strokeWidth=2;fillColor=#cce5ff;strokeColor=#36393d;fontFamily=Mina;fontSize=25;fontStyle=0;align=left;spacing=10;arcSize=50;container=0;" vertex="1" parent="1">
          <mxGeometry x="50.5" y="5290" width="725" height="100" as="geometry" />
        </mxCell>
        <mxCell id="gq76qE475kr2s1ayNZPQ-138" value="" style="verticalLabelPosition=bottom;verticalAlign=top;html=1;shape=mxgraph.basic.acute_triangle;dx=0.5;strokeWidth=2;" vertex="1" parent="1">
          <mxGeometry x="192" y="4800" width="442.86" height="310" as="geometry" />
        </mxCell>
        <mxCell id="gq76qE475kr2s1ayNZPQ-140" value="" style="verticalLabelPosition=bottom;verticalAlign=top;html=1;shape=mxgraph.basic.acute_triangle;dx=0.5;strokeWidth=2;fillColor=#ffcccc;strokeColor=#36393d;" vertex="1" parent="1">
          <mxGeometry x="299.14" y="4800" width="228.57" height="160" as="geometry" />
        </mxCell>
        <mxCell id="gq76qE475kr2s1ayNZPQ-144" value="" style="shape=manualInput;whiteSpace=wrap;html=1;rotation=90;size=107;strokeWidth=2;flipH=0;flipV=1;fillColor=#ffff88;strokeColor=#36393d;" vertex="1" parent="1">
          <mxGeometry x="228.86" y="4925" width="149" height="219" as="geometry" />
        </mxCell>
        <mxCell id="gq76qE475kr2s1ayNZPQ-145" value="" style="shape=manualInput;whiteSpace=wrap;html=1;rotation=90;size=106;strokeWidth=2;flipH=0;flipV=0;fillColor=#cce5ff;strokeColor=#36393d;textDirection=vertical-lr;fontFamily=Mina;fontStyle=1;fontSize=21;" vertex="1" parent="1">
          <mxGeometry x="448.81" y="4924.75" width="149" height="219.5" as="geometry" />
        </mxCell>
        <mxCell id="gq76qE475kr2s1ayNZPQ-146" value="&lt;div style=&quot;font-size: 21px;&quot;&gt;(FP)&lt;/div&gt;Function Point" style="text;html=1;align=center;verticalAlign=middle;whiteSpace=wrap;rounded=0;fontFamily=Mina;fontStyle=1;fontSize=21;" vertex="1" parent="1">
          <mxGeometry x="342.21000000000004" y="4860" width="142.44" height="85" as="geometry" />
        </mxCell>
        <mxCell id="gq76qE475kr2s1ayNZPQ-147" value="&lt;div style=&quot;font-size: 21px;&quot;&gt;(PM)&lt;/div&gt;Effort" style="text;html=1;align=center;verticalAlign=middle;whiteSpace=wrap;rounded=0;fontFamily=Mina;fontStyle=1;fontSize=21;" vertex="1" parent="1">
          <mxGeometry x="425.86" y="4992" width="142.44" height="85" as="geometry" />
        </mxCell>
        <mxCell id="gq76qE475kr2s1ayNZPQ-148" value="(FP/PM)&lt;div style=&quot;font-size: 21px;&quot;&gt;&lt;/div&gt;&lt;div&gt;Productivity&lt;/div&gt;" style="text;html=1;align=center;verticalAlign=middle;whiteSpace=wrap;rounded=0;fontFamily=Mina;fontStyle=1;fontSize=21;" vertex="1" parent="1">
          <mxGeometry x="260" y="4992" width="142.44" height="85" as="geometry" />
        </mxCell>
        <mxCell id="gq76qE475kr2s1ayNZPQ-158" value="Software Quality Metrics" style="shape=hexagon;perimeter=hexagonPerimeter2;whiteSpace=wrap;fixedSize=1;size=16;fillColor=#cdeb8b;strokeColor=#36393d;fontFamily=Mina;fontSize=40;strokeWidth=2;align=center;spacingLeft=0;spacingBottom=0;fillStyle=hachure;fontStyle=1;" vertex="1" parent="1">
          <mxGeometry x="163.13" y="5410" width="501.08" height="67.14" as="geometry" />
        </mxCell>
        <mxCell id="gq76qE475kr2s1ayNZPQ-166" value="&lt;div style=&quot;font-size: 20px;&quot;&gt;&lt;div&gt;Constant `A`&lt;/div&gt;&lt;/div&gt;" style="rounded=1;whiteSpace=wrap;html=1;hachureGap=4;fontFamily=Mina;strokeWidth=2;fillColor=#ffff88;strokeColor=#36393d;fontSize=20;fontStyle=1;labelBorderColor=none;textShadow=0;labelBackgroundColor=none;align=center;spacing=10;verticalAlign=middle;container=0;" vertex="1" parent="1">
          <mxGeometry x="80" y="5700" width="335" height="50" as="geometry" />
        </mxCell>
        <mxCell id="gq76qE475kr2s1ayNZPQ-167" value="Constant `B`" style="rounded=1;whiteSpace=wrap;html=1;hachureGap=4;fontFamily=Mina;strokeWidth=2;fillColor=#ffff88;strokeColor=#36393d;fontSize=20;fontStyle=1;labelBorderColor=none;textShadow=0;labelBackgroundColor=none;align=center;spacing=10;verticalAlign=middle;container=0;" vertex="1" parent="1">
          <mxGeometry x="415" y="5700" width="335" height="50" as="geometry" />
        </mxCell>
        <mxCell id="gq76qE475kr2s1ayNZPQ-160" value="You Will be Given :-" style="rounded=1;whiteSpace=wrap;html=1;hachureGap=4;fontFamily=Mina;strokeWidth=2;fillColor=#cce5ff;strokeColor=#36393d;fontSize=24;fontStyle=1;labelBorderColor=none;fontColor=default;textShadow=0;labelBackgroundColor=none;container=0;" vertex="1" parent="1">
          <mxGeometry x="269.87" y="5550" width="291.25" height="50" as="geometry" />
        </mxCell>
        <mxCell id="gq76qE475kr2s1ayNZPQ-161" value="&lt;div style=&quot;font-size: 20px;&quot;&gt;Number of distinct operators &lt;span style=&quot;font-weight: normal;&quot;&gt;`n_1`&lt;/span&gt;&lt;/div&gt;" style="rounded=1;whiteSpace=wrap;html=1;hachureGap=4;fontFamily=Mina;strokeWidth=2;fillColor=#ffff88;strokeColor=#36393d;fontSize=20;fontStyle=1;labelBorderColor=none;textShadow=0;labelBackgroundColor=none;align=center;spacing=10;verticalAlign=middle;container=0;" vertex="1" parent="1">
          <mxGeometry x="80" y="5600" width="335" height="50" as="geometry" />
        </mxCell>
        <mxCell id="gq76qE475kr2s1ayNZPQ-162" value="&lt;div style=&quot;font-size: 20px;&quot;&gt;&lt;div&gt;Number of distinct operands &lt;span style=&quot;font-weight: normal;&quot;&gt;`n_2`&lt;/span&gt;&lt;/div&gt;&lt;/div&gt;" style="rounded=1;whiteSpace=wrap;html=1;hachureGap=4;fontFamily=Mina;strokeWidth=2;fillColor=#ffff88;strokeColor=#36393d;fontSize=20;fontStyle=1;labelBorderColor=none;textShadow=0;labelBackgroundColor=none;align=center;spacing=10;verticalAlign=middle;container=0;" vertex="1" parent="1">
          <mxGeometry x="415" y="5600" width="335" height="50" as="geometry" />
        </mxCell>
        <mxCell id="gq76qE475kr2s1ayNZPQ-163" value="&lt;div style=&quot;font-size: 20px;&quot;&gt;&lt;div&gt;McCabe Cyclomatic number &lt;span style=&quot;font-weight: normal;&quot;&gt;`V(G)`&lt;/span&gt;&lt;/div&gt;&lt;/div&gt;" style="rounded=1;whiteSpace=wrap;html=1;hachureGap=4;fontFamily=Mina;strokeWidth=2;fillColor=#ffff88;strokeColor=#36393d;fontSize=20;fontStyle=1;labelBorderColor=none;textShadow=0;labelBackgroundColor=none;align=center;spacing=10;verticalAlign=middle;container=0;" vertex="1" parent="1">
          <mxGeometry x="80" y="5650" width="335" height="50" as="geometry" />
        </mxCell>
        <mxCell id="gq76qE475kr2s1ayNZPQ-164" value="&lt;div style=&quot;font-size: 20px;&quot;&gt;&lt;div&gt;Number of loops `P`&lt;/div&gt;&lt;/div&gt;" style="rounded=1;whiteSpace=wrap;html=1;hachureGap=4;fontFamily=Mina;strokeWidth=2;fillColor=#ffff88;strokeColor=#36393d;fontSize=20;fontStyle=1;labelBorderColor=none;textShadow=0;labelBackgroundColor=none;align=center;spacing=10;verticalAlign=middle;container=0;" vertex="1" parent="1">
          <mxGeometry x="415" y="5650" width="335" height="50" as="geometry" />
        </mxCell>
        <mxCell id="gq76qE475kr2s1ayNZPQ-174" value="Rules" style="rounded=1;whiteSpace=wrap;html=1;hachureGap=4;fontFamily=Mina;strokeWidth=2;fillColor=#cdeb8b;strokeColor=#36393d;fontSize=24;fontStyle=1;labelBorderColor=none;textShadow=0;labelBackgroundColor=none;container=0;" vertex="1" parent="1">
          <mxGeometry x="269.88" y="5880" width="291.25" height="50" as="geometry" />
        </mxCell>
        <mxCell id="gq76qE475kr2s1ayNZPQ-181" value="" style="group" vertex="1" connectable="0" parent="1">
          <mxGeometry x="20" y="6060" width="260" height="50" as="geometry" />
        </mxCell>
        <mxCell id="gq76qE475kr2s1ayNZPQ-177" value="&lt;div style=&quot;font-size: 20px;&quot;&gt;`N_2=n_{2}*log_2(n_{2})`&lt;br&gt;&lt;/div&gt;" style="rounded=1;whiteSpace=wrap;html=1;hachureGap=4;fontFamily=Mina;strokeWidth=2;fillColor=#f8cecc;strokeColor=#b85450;fontSize=20;fontStyle=0;labelBorderColor=none;textShadow=0;labelBackgroundColor=none;align=right;spacing=10;verticalAlign=middle;container=0;" vertex="1" parent="gq76qE475kr2s1ayNZPQ-181">
          <mxGeometry width="260" height="50" as="geometry" />
        </mxCell>
        <mxCell id="gq76qE475kr2s1ayNZPQ-179" value="&lt;div style=&quot;font-size: 20px;&quot;&gt;3&lt;/div&gt;" style="rounded=1;whiteSpace=wrap;html=1;hachureGap=4;fontFamily=Mina;strokeWidth=2;fillColor=#e51400;strokeColor=#B20000;fontSize=20;fontStyle=1;labelBorderColor=none;textShadow=0;labelBackgroundColor=none;align=center;spacing=10;verticalAlign=middle;container=0;fontColor=#ffffff;" vertex="1" parent="gq76qE475kr2s1ayNZPQ-181">
          <mxGeometry width="50" height="50" as="geometry" />
        </mxCell>
        <mxCell id="gq76qE475kr2s1ayNZPQ-182" value="" style="group" vertex="1" connectable="0" parent="1">
          <mxGeometry x="128.87" y="5960" width="232.26999999999998" height="50" as="geometry" />
        </mxCell>
        <mxCell id="gq76qE475kr2s1ayNZPQ-170" value="&lt;div style=&quot;font-size: 20px;&quot;&gt;`W=V(G)+P`&lt;/div&gt;" style="rounded=1;whiteSpace=wrap;html=1;hachureGap=4;fontFamily=Mina;strokeWidth=2;fillColor=#f8cecc;strokeColor=#b85450;fontSize=20;fontStyle=0;labelBorderColor=none;textShadow=0;labelBackgroundColor=none;align=right;spacing=10;verticalAlign=middle;container=0;" vertex="1" parent="gq76qE475kr2s1ayNZPQ-182">
          <mxGeometry width="232.27" height="50" as="geometry" />
        </mxCell>
        <mxCell id="gq76qE475kr2s1ayNZPQ-175" value="&lt;div style=&quot;font-size: 20px;&quot;&gt;1&lt;/div&gt;" style="rounded=1;whiteSpace=wrap;html=1;hachureGap=4;fontFamily=Mina;strokeWidth=2;fillColor=#e51400;strokeColor=#B20000;fontSize=20;fontStyle=1;labelBorderColor=none;textShadow=0;labelBackgroundColor=none;align=center;spacing=10;verticalAlign=middle;container=0;fontColor=#ffffff;" vertex="1" parent="gq76qE475kr2s1ayNZPQ-182">
          <mxGeometry width="50" height="50" as="geometry" />
        </mxCell>
        <mxCell id="gq76qE475kr2s1ayNZPQ-183" value="" style="group" vertex="1" connectable="0" parent="1">
          <mxGeometry x="448.57" y="5960" width="260" height="50" as="geometry" />
        </mxCell>
        <mxCell id="gq76qE475kr2s1ayNZPQ-171" value="&lt;div style=&quot;font-size: 20px;&quot;&gt;`N_1=n_{1}*log_2(n_{1})`&lt;/div&gt;" style="rounded=1;whiteSpace=wrap;html=1;hachureGap=4;fontFamily=Mina;strokeWidth=2;fillColor=#f8cecc;strokeColor=#b85450;fontSize=20;fontStyle=0;labelBorderColor=none;textShadow=0;labelBackgroundColor=none;align=right;spacing=10;verticalAlign=middle;container=0;" vertex="1" parent="gq76qE475kr2s1ayNZPQ-183">
          <mxGeometry width="260" height="50" as="geometry" />
        </mxCell>
        <mxCell id="gq76qE475kr2s1ayNZPQ-176" value="&lt;div style=&quot;font-size: 20px;&quot;&gt;2&lt;/div&gt;" style="rounded=1;whiteSpace=wrap;html=1;hachureGap=4;fontFamily=Mina;strokeWidth=2;fillColor=#e51400;strokeColor=#B20000;fontSize=20;fontStyle=1;labelBorderColor=none;textShadow=0;labelBackgroundColor=none;align=center;spacing=10;verticalAlign=middle;container=0;fontColor=#ffffff;" vertex="1" parent="gq76qE475kr2s1ayNZPQ-183">
          <mxGeometry x="8.881784197001252e-15" width="50" height="50" as="geometry" />
        </mxCell>
        <mxCell id="gq76qE475kr2s1ayNZPQ-186" value="" style="group" vertex="1" connectable="0" parent="1">
          <mxGeometry x="233" y="6160" width="434" height="100" as="geometry" />
        </mxCell>
        <mxCell id="gq76qE475kr2s1ayNZPQ-184" value="&lt;div style=&quot;font-size: 24px;&quot;&gt;`N_0=(E^(2/3) /3000)*(a*W^b)`&lt;/div&gt;" style="rounded=1;whiteSpace=wrap;html=1;hachureGap=4;fontFamily=Mina;strokeWidth=2;fillColor=#f8cecc;strokeColor=#b85450;fontSize=24;fontStyle=0;labelBorderColor=none;textShadow=0;labelBackgroundColor=none;align=right;spacing=10;verticalAlign=middle;container=0;" vertex="1" parent="gq76qE475kr2s1ayNZPQ-186">
          <mxGeometry width="434" height="100" as="geometry" />
        </mxCell>
        <mxCell id="gq76qE475kr2s1ayNZPQ-185" value="&lt;div style=&quot;font-size: 20px;&quot;&gt;5&lt;/div&gt;" style="rounded=1;whiteSpace=wrap;html=1;hachureGap=4;fontFamily=Mina;strokeWidth=2;fillColor=#e51400;strokeColor=#B20000;fontSize=20;fontStyle=1;labelBorderColor=none;textShadow=0;labelBackgroundColor=none;align=center;spacing=10;verticalAlign=middle;container=0;fontColor=#ffffff;" vertex="1" parent="gq76qE475kr2s1ayNZPQ-186">
          <mxGeometry x="0.8799999999999955" width="100" height="100" as="geometry" />
        </mxCell>
        <mxCell id="gq76qE475kr2s1ayNZPQ-187" value="" style="group" vertex="1" connectable="0" parent="1">
          <mxGeometry x="290" y="6040" width="520" height="80" as="geometry" />
        </mxCell>
        <mxCell id="gq76qE475kr2s1ayNZPQ-178" value="&lt;div style=&quot;font-size: 21px;&quot;&gt;`E=(n_1*N_2* (N_1 + N_2) log_2 (n_1 +n_2)) / (2*n_2)`&lt;/div&gt;" style="rounded=1;whiteSpace=wrap;html=1;hachureGap=4;fontFamily=Mina;strokeWidth=2;fillColor=#f8cecc;strokeColor=#b85450;fontSize=21;fontStyle=0;labelBorderColor=none;textShadow=0;labelBackgroundColor=none;align=right;spacing=10;verticalAlign=middle;container=0;" vertex="1" parent="gq76qE475kr2s1ayNZPQ-187">
          <mxGeometry width="520" height="80" as="geometry" />
        </mxCell>
        <mxCell id="gq76qE475kr2s1ayNZPQ-180" value="&lt;div style=&quot;font-size: 20px;&quot;&gt;4&lt;/div&gt;" style="rounded=1;whiteSpace=wrap;html=1;hachureGap=4;fontFamily=Mina;strokeWidth=2;fillColor=#e51400;strokeColor=#B20000;fontSize=20;fontStyle=1;labelBorderColor=none;textShadow=0;labelBackgroundColor=none;align=center;spacing=10;verticalAlign=middle;container=0;fontColor=#ffffff;" vertex="1" parent="gq76qE475kr2s1ayNZPQ-187">
          <mxGeometry width="80" height="80" as="geometry" />
        </mxCell>
        <mxCell id="gq76qE475kr2s1ayNZPQ-188" value="" style="group" vertex="1" connectable="0" parent="1">
          <mxGeometry x="59" y="6240" width="710" height="270" as="geometry" />
        </mxCell>
        <mxCell id="gq76qE475kr2s1ayNZPQ-189" value="&lt;div style=&quot;&quot;&gt;&lt;span style=&quot;font-size: 20px;&quot;&gt;&lt;b&gt;&amp;nbsp; &amp;nbsp;&amp;nbsp;&lt;/b&gt;&lt;/span&gt;&lt;span style=&quot;background-color: initial;&quot;&gt;&lt;b&gt;Calculate for systems using the program complexity can be quantified using two types of measures: structural measures and text measures. Calculate W, E, the theoretical number of initial errors 𝑁0&lt;/b&gt;&lt;/span&gt;&lt;/div&gt;&lt;div&gt;&lt;b&gt;Given that:&lt;/b&gt;&lt;/div&gt;&lt;div&gt;Number of distinct operators: `n_1=16`,&lt;/div&gt;&lt;div&gt;Number of distinct operands: `n_2=24`,&lt;/div&gt;&lt;div&gt;Mc Cabe Cyclomatic number: `V (G) = 16`&lt;/div&gt;&lt;div&gt;&lt;span style=&quot;background-color: initial;&quot;&gt;Number of loops: `P=94`&lt;/span&gt;&lt;/div&gt;&lt;div&gt;Constants: `a=0.559`, `b=1.177`&lt;/div&gt;" style="rounded=1;whiteSpace=wrap;html=1;strokeWidth=2;fillColor=#fad7ac;strokeColor=#000000;fontFamily=Mina;fontSize=20;fontStyle=0;align=left;spacing=10;arcSize=0;container=0;" vertex="1" parent="gq76qE475kr2s1ayNZPQ-188">
          <mxGeometry x="23" y="45" width="687" height="225.00000000000003" as="geometry" />
        </mxCell>
        <mxCell id="gq76qE475kr2s1ayNZPQ-190" value="1" style="ellipse;whiteSpace=wrap;html=1;aspect=fixed;fontFamily=Mina;fontStyle=1;fontSize=25;strokeWidth=2;fillColor=#a0522d;fontColor=#ffffff;strokeColor=#6D1F00;container=0;" vertex="1" parent="gq76qE475kr2s1ayNZPQ-188">
          <mxGeometry y="20" width="50" height="50" as="geometry" />
        </mxCell>
        <mxCell id="gq76qE475kr2s1ayNZPQ-191" value="" style="group" vertex="1" connectable="0" parent="1">
          <mxGeometry x="62" y="6570" width="270" height="50" as="geometry" />
        </mxCell>
        <mxCell id="gq76qE475kr2s1ayNZPQ-192" value="&lt;div style=&quot;font-size: 20px;&quot;&gt;`W=16+94=110`&lt;/div&gt;" style="rounded=1;whiteSpace=wrap;html=1;hachureGap=4;fontFamily=Mina;strokeWidth=2;fillColor=#cdeb8b;strokeColor=#36393d;fontSize=20;fontStyle=0;labelBorderColor=none;textShadow=0;labelBackgroundColor=none;align=right;spacing=10;verticalAlign=middle;container=0;" vertex="1" parent="gq76qE475kr2s1ayNZPQ-191">
          <mxGeometry width="270" height="50" as="geometry" />
        </mxCell>
        <mxCell id="gq76qE475kr2s1ayNZPQ-193" value="&lt;div style=&quot;font-size: 20px;&quot;&gt;1&lt;/div&gt;" style="rounded=1;whiteSpace=wrap;html=1;hachureGap=4;fontFamily=Mina;strokeWidth=2;fillColor=#008a00;strokeColor=#005700;fontSize=20;fontStyle=1;labelBorderColor=none;textShadow=0;labelBackgroundColor=none;align=center;spacing=10;verticalAlign=middle;container=0;fontColor=#ffffff;" vertex="1" parent="gq76qE475kr2s1ayNZPQ-191">
          <mxGeometry width="50" height="50" as="geometry" />
        </mxCell>
        <mxCell id="gq76qE475kr2s1ayNZPQ-194" value="" style="group" vertex="1" connectable="0" parent="1">
          <mxGeometry x="456" y="6570" width="310" height="50" as="geometry" />
        </mxCell>
        <mxCell id="gq76qE475kr2s1ayNZPQ-195" value="&lt;div style=&quot;font-size: 20px;&quot;&gt;`N_1=16*log_2(16)=64`&lt;/div&gt;" style="rounded=1;whiteSpace=wrap;html=1;hachureGap=4;fontFamily=Mina;strokeWidth=2;fillColor=#cdeb8b;strokeColor=#36393d;fontSize=20;fontStyle=0;labelBorderColor=none;textShadow=0;labelBackgroundColor=none;align=right;spacing=10;verticalAlign=middle;container=0;" vertex="1" parent="gq76qE475kr2s1ayNZPQ-194">
          <mxGeometry width="310" height="50" as="geometry" />
        </mxCell>
        <mxCell id="gq76qE475kr2s1ayNZPQ-196" value="&lt;div style=&quot;font-size: 20px;&quot;&gt;2&lt;/div&gt;" style="rounded=1;whiteSpace=wrap;html=1;hachureGap=4;fontFamily=Mina;strokeWidth=2;fillColor=#008a00;strokeColor=#005700;fontSize=20;fontStyle=1;labelBorderColor=none;textShadow=0;labelBackgroundColor=none;align=center;spacing=10;verticalAlign=middle;container=0;fontColor=#ffffff;" vertex="1" parent="gq76qE475kr2s1ayNZPQ-194">
          <mxGeometry x="8.881784197001252e-15" width="50" height="50" as="geometry" />
        </mxCell>
        <mxCell id="gq76qE475kr2s1ayNZPQ-200" value="" style="group" vertex="1" connectable="0" parent="1">
          <mxGeometry x="224" y="6650" width="380" height="50" as="geometry" />
        </mxCell>
        <mxCell id="gq76qE475kr2s1ayNZPQ-201" value="&lt;div style=&quot;font-size: 20px;&quot;&gt;`N_2=24*log_2(24)=110.0391`&lt;br&gt;&lt;/div&gt;" style="rounded=1;whiteSpace=wrap;html=1;hachureGap=4;fontFamily=Mina;strokeWidth=2;fillColor=#cdeb8b;strokeColor=#36393d;fontSize=20;fontStyle=0;labelBorderColor=none;textShadow=0;labelBackgroundColor=none;align=right;spacing=10;verticalAlign=middle;container=0;" vertex="1" parent="gq76qE475kr2s1ayNZPQ-200">
          <mxGeometry width="380" height="50" as="geometry" />
        </mxCell>
        <mxCell id="gq76qE475kr2s1ayNZPQ-202" value="&lt;div style=&quot;font-size: 20px;&quot;&gt;3&lt;/div&gt;" style="rounded=1;whiteSpace=wrap;html=1;hachureGap=4;fontFamily=Mina;strokeWidth=2;fillColor=#008a00;strokeColor=#005700;fontSize=20;fontStyle=1;labelBorderColor=none;textShadow=0;labelBackgroundColor=none;align=center;spacing=10;verticalAlign=middle;container=0;fontColor=#ffffff;" vertex="1" parent="gq76qE475kr2s1ayNZPQ-200">
          <mxGeometry width="50" height="50" as="geometry" />
        </mxCell>
        <mxCell id="gq76qE475kr2s1ayNZPQ-203" value="" style="group" vertex="1" connectable="0" parent="1">
          <mxGeometry x="53" y="6740" width="720" height="80" as="geometry" />
        </mxCell>
        <mxCell id="gq76qE475kr2s1ayNZPQ-204" value="&lt;div style=&quot;font-size: 20px;&quot;&gt;`E=(16*110.0391* (64+ 110.0391) log_2 (16 +24)) / (2*24)=33973.6`&lt;/div&gt;" style="rounded=1;whiteSpace=wrap;html=1;hachureGap=4;fontFamily=Mina;strokeWidth=2;fillColor=#cdeb8b;strokeColor=#36393d;fontSize=20;fontStyle=0;labelBorderColor=none;textShadow=0;labelBackgroundColor=none;align=right;spacing=10;verticalAlign=middle;container=0;" vertex="1" parent="gq76qE475kr2s1ayNZPQ-203">
          <mxGeometry width="720" height="80" as="geometry" />
        </mxCell>
        <mxCell id="gq76qE475kr2s1ayNZPQ-205" value="&lt;div style=&quot;font-size: 20px;&quot;&gt;4&lt;/div&gt;" style="rounded=1;whiteSpace=wrap;html=1;hachureGap=4;fontFamily=Mina;strokeWidth=2;fillColor=#008a00;strokeColor=#005700;fontSize=20;fontStyle=1;labelBorderColor=none;textShadow=0;labelBackgroundColor=none;align=center;spacing=10;verticalAlign=middle;container=0;fontColor=#ffffff;" vertex="1" parent="gq76qE475kr2s1ayNZPQ-203">
          <mxGeometry width="80" height="80" as="geometry" />
        </mxCell>
        <mxCell id="gq76qE475kr2s1ayNZPQ-206" value="" style="group" vertex="1" connectable="0" parent="1">
          <mxGeometry x="74" y="6850" width="680" height="100" as="geometry" />
        </mxCell>
        <mxCell id="gq76qE475kr2s1ayNZPQ-207" value="&lt;div style=&quot;font-size: 24px;&quot;&gt;`N_0=(33973.6^(2/3) /3000)*(0.559*110^1.177)=49.4`&lt;/div&gt;" style="rounded=1;whiteSpace=wrap;html=1;hachureGap=4;fontFamily=Mina;strokeWidth=2;fillColor=#cdeb8b;strokeColor=#36393d;fontSize=24;fontStyle=0;labelBorderColor=none;textShadow=0;labelBackgroundColor=none;align=right;spacing=10;verticalAlign=middle;container=0;" vertex="1" parent="gq76qE475kr2s1ayNZPQ-206">
          <mxGeometry width="680" height="100" as="geometry" />
        </mxCell>
        <mxCell id="gq76qE475kr2s1ayNZPQ-208" value="&lt;div style=&quot;font-size: 20px;&quot;&gt;5&lt;/div&gt;" style="rounded=1;whiteSpace=wrap;html=1;hachureGap=4;fontFamily=Mina;strokeWidth=2;fillColor=#008a00;strokeColor=#005700;fontSize=20;fontStyle=1;labelBorderColor=none;textShadow=0;labelBackgroundColor=none;align=center;spacing=10;verticalAlign=middle;container=0;fontColor=#ffffff;" vertex="1" parent="gq76qE475kr2s1ayNZPQ-206">
          <mxGeometry x="0.8799999999999955" width="100" height="100" as="geometry" />
        </mxCell>
      </root>
    </mxGraphModel>
  </diagram>
</mxfile>
